<?xml version="1.0" encoding="UTF-8" standalone="no"?>
<svg
   xmlns:dc="http://purl.org/dc/elements/1.1/"
   xmlns:cc="http://creativecommons.org/ns#"
   xmlns:rdf="http://www.w3.org/1999/02/22-rdf-syntax-ns#"
   xmlns:svg="http://www.w3.org/2000/svg"
   xmlns="http://www.w3.org/2000/svg"
   xmlns:xlink="http://www.w3.org/1999/xlink"
   xmlns:sodipodi="http://sodipodi.sourceforge.net/DTD/sodipodi-0.dtd"
   xmlns:inkscape="http://www.inkscape.org/namespaces/inkscape"
   width="19.792416mm"
   height="33.866665mm"
   viewBox="0 0 19.792416 33.866665"
   version="1.1"
   id="svg1149"
   inkscape:version="1.0.2 (e86c870879, 2021-01-15)"
   sodipodi:docname="arbol.svg">
  <defs
     id="defs1143">
    <inkscape:path-effect
       effect="bspline"
       id="path-effect5274"
       is_visible="true"
       lpeversion="1"
       weight="33.333333"
       steps="2"
       helper_size="0"
       apply_no_weight="true"
       apply_with_weight="true"
       only_selected="false" />
    <linearGradient
       inkscape:collect="always"
       id="linearGradient5268">
      <stop
         style="stop-color:#61fb7d;stop-opacity:1"
         offset="0"
         id="stop5264" />
      <stop
         style="stop-color:#61407d;stop-opacity:1"
         offset="1"
         id="stop5266" />
    </linearGradient>
    <linearGradient
       inkscape:collect="always"
       id="linearGradient5222">
      <stop
         style="stop-color:#614008;stop-opacity:1;"
         offset="0"
         id="stop5218" />
      <stop
         style="stop-color:#614008;stop-opacity:1"
         offset="0.35580412"
         id="stop5226" />
      <stop
         style="stop-color:#61407d;stop-opacity:1"
         offset="0.62777507"
         id="stop5228" />
      <stop
         style="stop-color:#614008;stop-opacity:1"
         offset="1"
         id="stop5220" />
    </linearGradient>
    <linearGradient
       inkscape:collect="always"
       id="linearGradient5178">
      <stop
         style="stop-color:#000000;stop-opacity:1;"
         offset="0"
         id="stop5174" />
      <stop
         style="stop-color:#000000;stop-opacity:0;"
         offset="1"
         id="stop5176" />
    </linearGradient>
    <inkscape:path-effect
       effect="bspline"
       id="path-effect1728"
       is_visible="true"
       lpeversion="1"
       weight="33.333333"
       steps="2"
       helper_size="0"
       apply_no_weight="true"
       apply_with_weight="true"
       only_selected="false" />
    <inkscape:path-effect
       effect="bspline"
       id="path-effect646-0-2"
       is_visible="true"
       lpeversion="1"
       weight="33.333333"
       steps="2"
       helper_size="0"
       apply_no_weight="true"
       apply_with_weight="true"
       only_selected="false" />
    <linearGradient
       inkscape:collect="always"
       xlink:href="#linearGradient5178"
       id="linearGradient5180"
       x1="25.328714"
       y1="60.953575"
       x2="34.936325"
       y2="11.450087"
       gradientUnits="userSpaceOnUse"
       gradientTransform="matrix(0.57612568,0,0,0.57612568,4.9497623,4.3653786)" />
    <linearGradient
       inkscape:collect="always"
       xlink:href="#linearGradient5222"
       id="linearGradient5224"
       x1="23.928492"
       y1="56.668903"
       x2="35.118191"
       y2="56.668903"
       gradientUnits="userSpaceOnUse"
       gradientTransform="matrix(0.57612568,0,0,0.57612568,4.9497623,4.3653786)" />
    <linearGradient
       inkscape:collect="always"
       xlink:href="#linearGradient5268"
       id="linearGradient5270"
       x1="14.675165"
       y1="18.831324"
       x2="28.080866"
       y2="36.118416"
       gradientUnits="userSpaceOnUse" />
  </defs>
  <sodipodi:namedview
     id="base"
     pagecolor="#ffffff"
     bordercolor="#666666"
     borderopacity="1.0"
     inkscape:pageopacity="0.0"
     inkscape:pageshadow="2"
     inkscape:zoom="1.4"
     inkscape:cx="50.518553"
     inkscape:cy="130.25399"
     inkscape:document-units="mm"
     inkscape:current-layer="layer1"
     inkscape:document-rotation="0"
     showgrid="false"
     fit-margin-top="0"
     fit-margin-left="0"
     fit-margin-right="0"
     fit-margin-bottom="0"
     inkscape:window-width="1366"
     inkscape:window-height="741"
     inkscape:window-x="0"
     inkscape:window-y="0"
     inkscape:window-maximized="0" />
  <metadata
     id="metadata1146">
    <rdf:RDF>
      <cc:Work
         rdf:about="">
        <dc:format>image/svg+xml</dc:format>
        <dc:type
           rdf:resource="http://purl.org/dc/dcmitype/StillImage" />
        <dc:title></dc:title>
      </cc:Work>
    </rdf:RDF>
  </metadata>
  <g
     inkscape:label="Capa 1"
     inkscape:groupmode="layer"
     id="layer1"
     transform="translate(-11.677429,-10.298757)">
    <path
       style="fill:url(#linearGradient5224);fill-opacity:1;stroke:#8d2900;stroke-width:0.273516;stroke-linecap:butt;stroke-linejoin:miter;stroke-dasharray:none;stroke-opacity:1"
       d="m 18.879297,44.003015 c 0.02183,-0.03303 0.06551,-0.09912 0.126059,-0.174877 0.06055,-0.07576 0.137965,-0.161168 0.233015,-0.273321 0.09505,-0.112152 0.207726,-0.25104 0.36327,-0.475682 0.155544,-0.224643 0.353949,-0.535036 0.48111,-0.746968 0.127161,-0.211931 0.183072,-0.325396 0.243234,-0.462737 0.06016,-0.13734 0.124573,-0.298553 0.215372,-0.62893 0.0908,-0.330376 0.207976,-0.829901 0.286212,-1.29831 0.07823,-0.468408 0.11752,-0.905683 0.143227,-1.348296 0.02571,-0.442613 0.03783,-0.890542 0.04622,-1.494261 0.0084,-0.603718 0.01301,-1.363187 0.02727,-2.170248 0.01426,-0.80706 0.03814,-1.66166 0.06998,-2.376036 0.03184,-0.714377 0.07162,-1.288486 0.08527,-1.69607 0.01365,-0.407584 0.0012,-0.648661 0.08477,-0.762464 0.08362,-0.113803 0.263346,-0.100343 0.44306,-0.0869 0.179715,0.01345 0.359424,0.02689 0.558095,0.04064 0.19867,0.01376 0.416256,0.02783 0.572591,0.03013 0.156335,0.0023 0.251523,-0.0072 0.346724,-0.01663 0.0952,-0.0095 0.190324,-0.01895 0.227167,0.23681 0.03684,0.25576 0.01538,0.77642 -0.0073,1.409105 -0.02272,0.632684 -0.04668,1.377216 -0.07233,2.174086 -0.02565,0.796871 -0.05299,1.646031 -0.0572,2.618977 -0.0042,0.972946 0.01471,2.069616 0.05313,2.813279 0.03842,0.743664 0.09633,1.134278 0.189452,1.517788 0.09312,0.38351 0.221444,0.759893 0.453496,1.205632 0.232052,0.445739 0.567807,0.960814 0.79523,1.311946 0.227423,0.351131 0.346503,0.5383 0.181974,0.604963 -0.164529,0.06666 -0.612657,0.01287 -1.174638,-0.02027 -0.561981,-0.03315 -1.237773,-0.04564 -2.079457,-0.02526 -0.841685,0.02039 -1.849208,0.07366 -2.352995,0.100304 -0.503787,0.02664 -0.503783,0.02662 -0.481953,-0.0064 z"
       id="path1726"
       inkscape:path-effect="#path-effect1728"
       inkscape:original-d="m 18.857467,44.036046 c 0.04371,-0.06603 0.08739,-0.132117 0.131029,-0.198258 0.07745,-0.08537 0.154871,-0.170777 0.232254,-0.256245 0.112717,-0.13884 0.225393,-0.277728 0.338036,-0.416668 0.198448,-0.310352 0.396853,-0.620745 0.595226,-0.931196 0.05595,-0.113418 0.11186,-0.226884 0.167736,-0.340403 0.06445,-0.161166 0.128861,-0.322379 0.193235,-0.483648 0.117219,-0.499493 0.234396,-0.999018 0.35154,-1.498605 0.03932,-0.437238 0.0786,-0.874513 0.117855,-1.311846 0.01216,-0.447895 0.02429,-0.895824 0.03638,-1.343813 0.0047,-0.759449 0.0093,-1.518918 0.0139,-2.278455 0.02392,-0.854583 0.0478,-1.709183 0.07165,-2.563855 0.03983,-0.574079 0.07961,-1.148189 0.119367,-1.72236 -0.01246,-0.241001 -0.02496,-0.482078 -0.03749,-0.723143 0.179737,0.01351 0.359464,0.02693 0.53918,0.04038 0.179714,0.01344 0.35942,0.02692 0.539121,0.04031 0.21764,0.01412 0.435226,0.02819 0.652705,0.04221 0.0952,-0.0094 0.190387,-0.01886 0.285564,-0.02837 0.09523,-0.0094 0.190349,-0.01891 0.28551,-0.02845 -0.02144,0.521006 -0.04291,1.041666 -0.06442,1.56242 -0.02393,0.744614 -0.04789,1.489146 -0.07189,2.233641 -0.02731,0.849246 -0.05465,1.698406 -0.08202,2.547533 0.01895,1.096763 0.03787,2.193433 0.05675,3.290072 0.05795,0.390685 0.115858,0.781299 0.173734,1.17187 0.128361,0.376447 0.256681,0.752831 0.384968,1.129168 0.335805,0.515144 0.671558,1.03022 1.007284,1.545256 0.119118,0.187228 0.238199,0.374396 0.357244,0.561513 -0.44811,-0.05374 -0.896238,-0.107534 -1.344411,-0.161379 -0.675784,-0.01246 -1.351576,-0.02494 -2.027416,-0.03749 -1.007525,0.05333 -2.015048,0.106606 -3.022625,0.159829 z"
       sodipodi:nodetypes="cccccccccccccccccccccccccccccc"
       inkscape:export-filename="../../Desktop/GAME JAM/tallo_1.png"
       inkscape:export-xdpi="98.472549"
       inkscape:export-ydpi="98.472549" />
    <path
       id="path1730"
       style="fill:url(#linearGradient5270);fill-opacity:1;stroke:url(#linearGradient5180);stroke-width:1.332;stroke-linecap:square;stroke-miterlimit:4;stroke-dasharray:15.984, 15.98399999999999999;stroke-dashoffset:0;stroke-opacity:1;paint-order:stroke fill markers"
       inkscape:transform-center-x="-0.71056523"
       inkscape:transform-center-y="-3.977641"
       d="m 18.550408,12.536903 c 0,0 -1.360569,0.777041 -3.227619,2.861205 -2.987279,3.334662 0.118007,1.623449 -2.645814,7.070883 -0.712188,1.403708 -0.06686,2.570407 -0.01408,3.251707 -0.0153,0.621794 -5.46e-4,1.439913 -0.0113,2.610131 -0.04378,4.765835 0.445819,6.600138 1.779024,7.90555 1.648303,1.613941 5.724851,2.506481 6.939279,2.242975 1.689517,-0.366592 6.250326,-0.96224 6.827136,-2.242975 l 2.19942,-4.883535 c 0,0 1.098469,-5.261251 1.045753,-5.942514 0.01531,-0.621852 -0.893188,-3.53954 -0.882439,-4.710063 -0.864644,-2.80198 -1.429753,-3.642609 -2.776941,-5.153401 -2.04751,-2.296163 -1.428753,-4.534717 -5.609619,-4.584629 -1.567825,-0.01872 -3.622806,1.574666 -3.622806,1.574666 z"
       sodipodi:nodetypes="cssccssscccssc"
       inkscape:export-filename="../../Desktop/GAME JAM/follaje_1.png"
       inkscape:export-xdpi="45.575981"
       inkscape:export-ydpi="45.575981" />
    <path
       style="fill:url(#linearGradient5224);fill-opacity:1;stroke:#8d2900;stroke-width:0.273516;stroke-linecap:butt;stroke-linejoin:miter;stroke-dasharray:none;stroke-opacity:1"
       d="m 18.879297,44.003015 c 0.02183,-0.03303 0.06551,-0.09912 0.126059,-0.174877 0.06055,-0.07576 0.137965,-0.161168 0.233015,-0.273321 0.09505,-0.112152 0.207726,-0.25104 0.36327,-0.475682 0.155544,-0.224643 0.353949,-0.535036 0.48111,-0.746968 0.127161,-0.211931 0.183072,-0.325396 0.243234,-0.462737 0.06016,-0.13734 0.124573,-0.298553 0.215372,-0.62893 0.0908,-0.330376 0.207976,-0.829901 0.286212,-1.29831 0.07823,-0.468408 0.11752,-0.905683 0.143227,-1.348296 0.02571,-0.442613 0.03783,-0.890542 0.04622,-1.494261 0.0084,-0.603718 0.01301,-1.363187 0.02727,-2.170248 0.01426,-0.80706 0.03814,-1.66166 0.06998,-2.376036 0.03184,-0.714377 0.07162,-1.288486 0.08527,-1.69607 0.01365,-0.407584 0.0012,-0.648661 0.08477,-0.762464 0.08362,-0.113803 0.263346,-0.100343 0.44306,-0.0869 0.179715,0.01345 0.359424,0.02689 0.558095,0.04064 0.19867,0.01376 0.416256,0.02783 0.572591,0.03013 0.156335,0.0023 0.251523,-0.0072 0.346724,-0.01663 0.0952,-0.0095 0.190324,-0.01895 0.227167,0.23681 0.03684,0.25576 0.01538,0.77642 -0.0073,1.409105 -0.02272,0.632684 -0.04668,1.377216 -0.07233,2.174086 -0.02565,0.796871 -0.05299,1.646031 -0.0572,2.618977 -0.0042,0.972946 0.01471,2.069616 0.05313,2.813279 0.03842,0.743664 0.09633,1.134278 0.189452,1.517788 0.09312,0.38351 0.221444,0.759893 0.453496,1.205632 0.232052,0.445739 0.567807,0.960814 0.79523,1.311946 0.227423,0.351131 0.346503,0.5383 0.181974,0.604963 -0.164529,0.06666 -0.612657,0.01287 -1.174638,-0.02027 -0.561981,-0.03315 -1.237773,-0.04564 -2.079457,-0.02526 -0.841685,0.02039 -1.849208,0.07366 -2.352995,0.100304 -0.503787,0.02664 -0.503783,0.02662 -0.481953,-0.0064 z"
       id="path5272"
       inkscape:path-effect="#path-effect5274"
       inkscape:original-d="m 18.857467,44.036046 c 0.04371,-0.06603 0.08739,-0.132117 0.131029,-0.198258 0.07745,-0.08537 0.154871,-0.170777 0.232254,-0.256245 0.112717,-0.13884 0.225393,-0.277728 0.338036,-0.416668 0.198448,-0.310352 0.396853,-0.620745 0.595226,-0.931196 0.05595,-0.113418 0.11186,-0.226884 0.167736,-0.340403 0.06445,-0.161166 0.128861,-0.322379 0.193235,-0.483648 0.117219,-0.499493 0.234396,-0.999018 0.35154,-1.498605 0.03932,-0.437238 0.0786,-0.874513 0.117855,-1.311846 0.01216,-0.447895 0.02429,-0.895824 0.03638,-1.343813 0.0047,-0.759449 0.0093,-1.518918 0.0139,-2.278455 0.02392,-0.854583 0.0478,-1.709183 0.07165,-2.563855 0.03983,-0.574079 0.07961,-1.148189 0.119367,-1.72236 -0.01246,-0.241001 -0.02496,-0.482078 -0.03749,-0.723143 0.179737,0.01351 0.359464,0.02693 0.53918,0.04038 0.179714,0.01344 0.35942,0.02692 0.539121,0.04031 0.21764,0.01412 0.435226,0.02819 0.652705,0.04221 0.0952,-0.0094 0.190387,-0.01886 0.285564,-0.02837 0.09523,-0.0094 0.190349,-0.01891 0.28551,-0.02845 -0.02144,0.521006 -0.04291,1.041666 -0.06442,1.56242 -0.02393,0.744614 -0.04789,1.489146 -0.07189,2.233641 -0.02731,0.849246 -0.05465,1.698406 -0.08202,2.547533 0.01895,1.096763 0.03787,2.193433 0.05675,3.290072 0.05795,0.390685 0.115858,0.781299 0.173734,1.17187 0.128361,0.376447 0.256681,0.752831 0.384968,1.129168 0.335805,0.515144 0.671558,1.03022 1.007284,1.545256 0.119118,0.187228 0.238199,0.374396 0.357244,0.561513 -0.44811,-0.05374 -0.896238,-0.107534 -1.344411,-0.161379 -0.675784,-0.01246 -1.351576,-0.02494 -2.027416,-0.03749 -1.007525,0.05333 -2.015048,0.106606 -3.022625,0.159829 z"
       sodipodi:nodetypes="cccccccccccccccccccccccccccccc"
       inkscape:export-filename="../../Desktop/GAME JAM/tallo_1.png"
       inkscape:export-xdpi="98.472549"
       inkscape:export-ydpi="98.472549" />
    <path
       id="path5276"
       style="fill:url(#linearGradient5270);fill-opacity:1;stroke:url(#linearGradient5180);stroke-width:1.332;stroke-linecap:square;stroke-miterlimit:4;stroke-dasharray:15.984, 15.98399999999999999;stroke-dashoffset:0;stroke-opacity:1;paint-order:stroke fill markers"
       inkscape:transform-center-x="-0.71056523"
       inkscape:transform-center-y="-3.977641"
       d="m 18.550408,12.536903 c 0,0 -1.360569,0.777041 -3.227619,2.861205 -2.987279,3.334662 0.118007,1.623449 -2.645814,7.070883 -0.712188,1.403708 -0.06686,2.570407 -0.01408,3.251707 -0.0153,0.621794 -5.46e-4,1.439913 -0.0113,2.610131 -0.04378,4.765835 0.445819,6.600138 1.779024,7.90555 1.648303,1.613941 5.724851,2.506481 6.939279,2.242975 1.689517,-0.366592 6.250326,-0.96224 6.827136,-2.242975 l 2.19942,-4.883535 c 0,0 1.098469,-5.261251 1.045753,-5.942514 0.01531,-0.621852 -0.893188,-3.53954 -0.882439,-4.710063 -0.864644,-2.80198 -1.429753,-3.642609 -2.776941,-5.153401 -2.04751,-2.296163 -1.428753,-4.534717 -5.609619,-4.584629 -1.567825,-0.01872 -3.622806,1.574666 -3.622806,1.574666 z"
       sodipodi:nodetypes="cssccssscccssc"
       inkscape:export-filename="../../Desktop/GAME JAM/follaje_1.png"
       inkscape:export-xdpi="45.575981"
       inkscape:export-ydpi="45.575981" />
  </g>
</svg>
