<?xml version="1.0" encoding="UTF-8" standalone="no"?>
<svg
   xmlns:dc="http://purl.org/dc/elements/1.1/"
   xmlns:cc="http://creativecommons.org/ns#"
   xmlns:rdf="http://www.w3.org/1999/02/22-rdf-syntax-ns#"
   xmlns:svg="http://www.w3.org/2000/svg"
   xmlns="http://www.w3.org/2000/svg"
   xmlns:xlink="http://www.w3.org/1999/xlink"
   xmlns:sodipodi="http://sodipodi.sourceforge.net/DTD/sodipodi-0.dtd"
   xmlns:inkscape="http://www.inkscape.org/namespaces/inkscape"
   width="42.333332mm"
   height="15.988286mm"
   viewBox="0 0 42.333332 15.988286"
   version="1.1"
   id="svg1997"
   inkscape:version="1.0.2 (e86c870879, 2021-01-15)"
   sodipodi:docname="puente.svg">
  <defs
     id="defs1991">
    <linearGradient
       inkscape:collect="always"
       id="linearGradient2741">
      <stop
         style="stop-color:#806600;stop-opacity:1;"
         offset="0"
         id="stop2737" />
      <stop
         style="stop-color:#b16600;stop-opacity:1"
         offset="1"
         id="stop2739" />
    </linearGradient>
    <linearGradient
       inkscape:collect="always"
       xlink:href="#linearGradient2741"
       id="linearGradient2743"
       x1="1352.1819"
       y1="-1441.9119"
       x2="1326.7153"
       y2="-1487.5909"
       gradientUnits="userSpaceOnUse" />
    <linearGradient
       inkscape:collect="always"
       xlink:href="#linearGradient2741"
       id="linearGradient2765"
       x1="1337.1819"
       y1="-1462.9543"
       x2="1402.6187"
       y2="-1462.9543"
       gradientUnits="userSpaceOnUse" />
    <linearGradient
       inkscape:collect="always"
       xlink:href="#linearGradient2741"
       id="linearGradient2773"
       x1="1366.9825"
       y1="-1487.0171"
       x2="1419.0164"
       y2="-1440.5786"
       gradientUnits="userSpaceOnUse" />
    <linearGradient
       inkscape:collect="always"
       xlink:href="#linearGradient2741"
       id="linearGradient2781"
       x1="1408.0913"
       y1="-1490.0331"
       x2="1483.6401"
       y2="-1434.7188"
       gradientUnits="userSpaceOnUse" />
    <linearGradient
       inkscape:collect="always"
       xlink:href="#linearGradient2741"
       id="linearGradient2789"
       x1="1517.7378"
       y1="-1429.8772"
       x2="1488.2211"
       y2="-1491.6053"
       gradientUnits="userSpaceOnUse" />
    <radialGradient
       inkscape:collect="always"
       xlink:href="#linearGradient2741"
       id="radialGradient2797"
       cx="1548.6824"
       cy="-1461.4403"
       fx="1548.6824"
       fy="-1461.4403"
       r="41.479969"
       gradientTransform="matrix(1,0,0,0.74609154,0,-371.07206)"
       gradientUnits="userSpaceOnUse" />
    <radialGradient
       inkscape:collect="always"
       xlink:href="#linearGradient2741"
       id="radialGradient2805"
       cx="1601.0282"
       cy="-1460.4111"
       fx="1601.0282"
       fy="-1460.4111"
       r="41.479916"
       gradientTransform="matrix(1,0,0,0.7460925,0,-370.80934)"
       gradientUnits="userSpaceOnUse" />
    <linearGradient
       inkscape:collect="always"
       xlink:href="#linearGradient2741"
       id="linearGradient2855"
       gradientUnits="userSpaceOnUse"
       x1="1352.1819"
       y1="-1441.9119"
       x2="1326.7153"
       y2="-1487.5909" />
  </defs>
  <sodipodi:namedview
     id="base"
     pagecolor="#ffffff"
     bordercolor="#666666"
     borderopacity="1.0"
     inkscape:pageopacity="0.0"
     inkscape:pageshadow="2"
     inkscape:zoom="1.4"
     inkscape:cx="136.53633"
     inkscape:cy="7.6943815"
     inkscape:document-units="mm"
     inkscape:current-layer="g7403"
     inkscape:document-rotation="0"
     showgrid="false"
     fit-margin-top="0"
     fit-margin-left="0"
     fit-margin-right="0"
     fit-margin-bottom="0"
     inkscape:window-width="1366"
     inkscape:window-height="741"
     inkscape:window-x="0"
     inkscape:window-y="0"
     inkscape:window-maximized="0" />
  <metadata
     id="metadata1994">
    <rdf:RDF>
      <cc:Work
         rdf:about="">
        <dc:format>image/svg+xml</dc:format>
        <dc:type
           rdf:resource="http://purl.org/dc/dcmitype/StillImage" />
        <dc:title></dc:title>
      </cc:Work>
    </rdf:RDF>
  </metadata>
  <g
     inkscape:label="Capa 1"
     inkscape:groupmode="layer"
     id="layer1"
     transform="translate(17.784479,6.3489874)">
    <g
       id="g7403"
       inkscape:export-filename="GAME JAM/puente.png"
       inkscape:export-xdpi="17.592499"
       inkscape:export-ydpi="17.592499"
       transform="matrix(0.1832552,0,0,0.1832552,-254.66063,268.0955)">
      <g
         id="g2853"
         transform="matrix(0.625,0,0,0.625,484.72598,-561.60307)">
        <path
           style="fill:#806600;fill-opacity:1;stroke:#000000;stroke-width:2;stroke-linecap:butt;stroke-linejoin:miter;stroke-dasharray:none;stroke-opacity:1"
           d="m 1453.6013,-1434.6656 7.8189,-1.4339 0.5992,9.2902 -9.0518,27.5173 3.4588,22.3151 -0.744,17.8281 -11.5138,-1.5166 0.848,-26.5592 2.8839,-29.2888 z"
           id="path6096-0-5" />
        <path
           style="fill:#806600;fill-opacity:1;stroke:#000000;stroke-width:1.76199;stroke-linecap:butt;stroke-linejoin:miter;stroke-dasharray:none;stroke-opacity:1"
           d="m 1528.6243,-1434.7034 6.5211,-1.5823 0.2144,8.6961 -8.3339,26.086 2.1882,20.8269 -1.1574,16.7454 -9.4923,-1.0732 1.5084,-24.9384 3.2779,-27.5607 z"
           id="path6096-6-5" />
        <path
           style="fill:#806600;fill-opacity:1;stroke:#000000;stroke-width:2;stroke-linecap:butt;stroke-linejoin:miter;stroke-dasharray:none;stroke-opacity:1"
           d="m 1588.8841,-1436.5609 7.8191,-1.4339 0.5991,9.2902 -9.0518,27.5173 3.4587,22.315 -0.7439,17.8282 -11.5139,-1.5166 0.8481,-26.5592 2.8838,-29.2888 z"
           id="path6096-3-4" />
        <path
           style="fill:#806600;fill-opacity:1;stroke:#000000;stroke-width:2;stroke-linecap:butt;stroke-linejoin:miter;stroke-dasharray:none;stroke-opacity:1"
           d="m 1419.6501,-1475.9522 7.8189,-1.4339 0.5992,9.2902 -9.0518,27.5173 3.4588,22.3151 -0.744,17.8281 -11.5138,-1.5166 0.848,-26.5592 2.8839,-29.2888 z"
           id="path6096-0-5-6" />
        <path
           style="fill:#806600;fill-opacity:1;stroke:#000000;stroke-width:1.76199;stroke-linecap:butt;stroke-linejoin:miter;stroke-dasharray:none;stroke-opacity:1"
           d="m 1494.6731,-1475.99 6.5211,-1.5823 0.2144,8.6961 -8.3339,26.086 2.1882,20.8269 -1.1574,16.7454 -9.4923,-1.0732 1.5084,-24.9384 3.2779,-27.5607 z"
           id="path6096-6-5-9" />
        <path
           style="fill:#806600;fill-opacity:1;stroke:#000000;stroke-width:2;stroke-linecap:butt;stroke-linejoin:miter;stroke-dasharray:none;stroke-opacity:1"
           d="m 1554.9329,-1477.8475 7.8191,-1.4339 0.5991,9.2902 -9.0518,27.5173 3.4587,22.315 -0.7439,17.8282 -11.5139,-1.5166 0.8481,-26.5592 2.8838,-29.2888 z"
           id="path6096-3-4-3" />
        <path
           style="fill:#806600;fill-opacity:1;stroke:#000000;stroke-width:1.95009;stroke-linecap:butt;stroke-linejoin:miter;stroke-dasharray:none;stroke-opacity:1"
           d="m 1326.7153,-1487.591 23.6517,-0.209 47.466,6.8589 45.2775,-9.9036 60.6127,18.7313 38.6582,-12.0323 41.5179,4.5606 51.3636,10.1774 -3.4828,9.5024 -23.1896,-4.5546 -48.735,-9.446 -33.9355,1.6755 -21.566,12.1178 -51.11,-19.3896 -38.6942,6.3185 -68.6884,-4.5385 -18.2966,0.8673 z"
           id="path5709" />
        <path
           style="fill:#916f6f;stroke:#000000;stroke-width:2.01038;stroke-linecap:butt;stroke-linejoin:miter;stroke-dasharray:none;stroke-opacity:1"
           d="m 1576.9503,-1486.7205 -3.0802,6.7288 46.3476,51.4795 16.2789,0.7102 21.925,-1.452 2.0697,-7.3547"
           id="path4360-9-6-3" />
        <path
           style="fill:#806600;fill-opacity:1;stroke:#3b2313;stroke-width:2;stroke-linecap:butt;stroke-linejoin:miter;stroke-dasharray:none;stroke-opacity:1"
           d="m 1577.9034,-1486.3338 41.1088,-3.016 41.4948,52.7464 -20.9269,5.9605 -17.3947,-1.712 z"
           id="path4358-3-2-6"
           sodipodi:nodetypes="cccccc" />
        <path
           style="fill:none;stroke:#000000;stroke-width:2;stroke-linecap:butt;stroke-linejoin:miter;stroke-dasharray:none;stroke-opacity:1"
           d="m 1620.2177,-1428.5122 1.9677,-3.8427"
           id="path4604-6-6-1" />
        <path
           style="fill:#916f6f;stroke:#000000;stroke-width:2.01038;stroke-linecap:butt;stroke-linejoin:miter;stroke-dasharray:none;stroke-opacity:1"
           d="m 1560.5598,-1490.3447 -3.4926,6.5243 43.0566,54.262 16.2032,1.7211 21.9729,-0.086 2.5231,-7.2118"
           id="path4360-1-8-9" />
        <path
           style="fill:url(#radialGradient2805);fill-opacity:1;stroke:#3b2313;stroke-width:2;stroke-linecap:butt;stroke-linejoin:miter;stroke-dasharray:none;stroke-opacity:1"
           d="m 1561.4871,-1489.8994 41.2168,-0.4538 38.1343,55.2247 -21.257,4.6477 -17.2545,-2.7905 z"
           id="path4358-2-7-3"
           sodipodi:nodetypes="cccccc" />
        <path
           style="fill:none;stroke:#000000;stroke-width:2;stroke-linecap:butt;stroke-linejoin:miter;stroke-dasharray:none;stroke-opacity:1"
           d="m 1600.1238,-1429.5584 2.2029,-3.7129"
           id="path4604-7-9-1" />
        <path
           style="fill:#806600;fill-opacity:1;stroke:#000000;stroke-width:2;stroke-linecap:butt;stroke-linejoin:miter;stroke-dasharray:none;stroke-opacity:1"
           d="m 1585.4834,-1435.3223 -3.2797,6.6478 27.3081,0.056 2.8842,-6.5149 -42.8044,-60.7646 -19.7761,1.0119 z"
           id="path4362-0-4" />
        <path
           style="fill:none;stroke:#000000;stroke-width:2.02762;stroke-linecap:butt;stroke-linejoin:miter;stroke-dasharray:none;stroke-opacity:1"
           d="m 1581.8651,-1427.9946 -35.3972,-62.0529 2.7719,-5.1191"
           id="path4364-2-7" />
        <path
           style="fill:#ff6600;stroke:#3b2313;stroke-width:2;stroke-linecap:butt;stroke-linejoin:miter;stroke-dasharray:none;stroke-opacity:1"
           d="m 1585.4834,-1435.3223 26.9126,0.1888"
           id="path4366-3-8" />
        <path
           style="fill:#916f6f;fill-opacity:1;stroke-width:0.769207;stroke-linecap:square;stroke-dasharray:none;paint-order:stroke fill markers"
           d="m 1584.8688,-1431.7614 c 0.5483,-1.1149 1.0808,-2.1338 1.1834,-2.2642 0.1763,-0.2242 0.8515,-0.2324 12.4164,-0.151 l 12.23,0.086 -0.1031,0.3567 c -0.057,0.1962 -0.4797,1.1974 -0.9401,2.225 l -0.837,1.8683 -0.7507,-0.022 c -0.4128,-0.012 -5.4048,-0.028 -11.0932,-0.035 -5.6884,-0.01 -10.9636,-0.018 -11.7226,-0.025 l -1.38,-0.011 z"
           id="path4533-7-4" />
        <path
           style="fill:#916f6f;stroke:#000000;stroke-width:2.01038;stroke-linecap:butt;stroke-linejoin:miter;stroke-dasharray:none;stroke-opacity:1"
           d="m 1508.214,-1491.3739 -3.4927,6.5243 43.0566,54.2621 16.2032,1.7211 21.9729,-0.086 2.5231,-7.2117"
           id="path4360-92-0" />
        <path
           style="fill:url(#radialGradient2797);fill-opacity:1;stroke:#3b2313;stroke-width:2;stroke-linecap:butt;stroke-linejoin:miter;stroke-dasharray:none;stroke-opacity:1"
           d="m 1509.1412,-1490.9286 41.2168,-0.4538 38.1344,55.2248 -21.2571,4.6476 -17.2545,-2.7905 z"
           id="path4358-28-3"
           sodipodi:nodetypes="cccccc" />
        <path
           style="fill:none;stroke:#000000;stroke-width:2;stroke-linecap:butt;stroke-linejoin:miter;stroke-dasharray:none;stroke-opacity:1"
           d="m 1547.7779,-1430.5875 2.2029,-3.713"
           id="path4604-9-6" />
        <path
           style="fill:#916f6f;stroke:#000000;stroke-width:2.01038;stroke-linecap:butt;stroke-linejoin:miter;stroke-dasharray:none;stroke-opacity:1"
           d="m 1475.1069,-1486.1169 -3.0802,6.7289 46.3477,51.4795 16.2788,0.7101 21.925,-1.452 2.0698,-7.3547"
           id="path4360-9-6" />
        <path
           style="fill:#806600;fill-opacity:1;stroke:#3b2313;stroke-width:2;stroke-linecap:butt;stroke-linejoin:miter;stroke-dasharray:none;stroke-opacity:1"
           d="m 1476.06,-1485.7301 41.1088,-3.016 41.4948,52.7464 -20.9269,5.9605 -17.3947,-1.7121 z"
           id="path4358-3-2"
           sodipodi:nodetypes="cccccc" />
        <path
           style="fill:none;stroke:#000000;stroke-width:2;stroke-linecap:butt;stroke-linejoin:miter;stroke-dasharray:none;stroke-opacity:1"
           d="m 1518.3744,-1427.9085 1.9676,-3.8428"
           id="path4604-6-6" />
        <path
           style="fill:#916f6f;stroke:#000000;stroke-width:2.01038;stroke-linecap:butt;stroke-linejoin:miter;stroke-dasharray:none;stroke-opacity:1"
           d="m 1458.7165,-1489.741 -3.4927,6.5243 43.0566,54.262 16.2032,1.7211 21.9729,-0.086 2.5231,-7.2118"
           id="path4360-1-8" />
        <path
           style="fill:url(#linearGradient2789);fill-opacity:1;stroke:#3b2313;stroke-width:2;stroke-linecap:butt;stroke-linejoin:miter;stroke-dasharray:none;stroke-opacity:1"
           d="m 1459.6437,-1489.2957 41.2168,-0.4538 38.1344,55.2247 -21.2571,4.6476 -17.2545,-2.7904 z"
           id="path4358-2-7"
           sodipodi:nodetypes="cccccc" />
        <path
           style="fill:none;stroke:#000000;stroke-width:2;stroke-linecap:butt;stroke-linejoin:miter;stroke-dasharray:none;stroke-opacity:1"
           d="m 1498.2804,-1428.9547 2.2029,-3.7129"
           id="path4604-7-9" />
        <path
           style="fill:#806600;fill-opacity:1;stroke:#3b2313;stroke-width:2;stroke-linecap:butt;stroke-linejoin:miter;stroke-dasharray:none;stroke-opacity:1"
           d="m 1483.6401,-1434.7187 -3.2798,6.6478 27.3081,0.056 2.8842,-6.5149 -42.8043,-60.7646 -19.7762,1.0119 z"
           id="path4362-0" />
        <path
           style="fill:none;stroke:#000000;stroke-width:2.02762;stroke-linecap:butt;stroke-linejoin:miter;stroke-dasharray:none;stroke-opacity:1"
           d="m 1480.0217,-1427.391 -35.3972,-62.0529 2.772,-5.119"
           id="path4364-2" />
        <path
           style="fill:#ff6600;stroke:#000000;stroke-width:2;stroke-linecap:butt;stroke-linejoin:miter;stroke-dasharray:none;stroke-opacity:1"
           d="m 1483.6401,-1434.7187 26.9125,0.1888"
           id="path4366-3" />
        <path
           style="fill:#916f6f;fill-opacity:1;stroke-width:0.769207;stroke-linecap:square;stroke-dasharray:none;paint-order:stroke fill markers"
           d="m 1483.0254,-1431.1577 c 0.5483,-1.115 1.0808,-2.1339 1.1834,-2.2643 0.1763,-0.2241 0.8515,-0.2324 12.4164,-0.151 l 12.23,0.086 -0.103,0.3567 c -0.057,0.1962 -0.4798,1.1974 -0.9402,2.225 l -0.837,1.8683 -0.7507,-0.022 c -0.4128,-0.012 -5.4048,-0.028 -11.0932,-0.035 -5.6884,-0.01 -10.9636,-0.018 -11.7226,-0.024 l -1.38,-0.011 z"
           id="path4533-7" />
        <path
           style="fill:#916f6f;stroke:#000000;stroke-width:2.01038;stroke-linecap:butt;stroke-linejoin:miter;stroke-dasharray:none;stroke-opacity:1"
           d="m 1406.3706,-1490.7702 -3.4927,6.5243 43.0566,54.262 16.2032,1.7211 21.9729,-0.086 2.5231,-7.2118"
           id="path4360-92" />
        <path
           style="fill:url(#linearGradient2781);fill-opacity:1;stroke:#3b2313;stroke-width:2;stroke-linecap:butt;stroke-linejoin:miter;stroke-dasharray:none;stroke-opacity:1"
           d="m 1407.2978,-1490.3249 41.2168,-0.4538 38.1344,55.2247 -21.2571,4.6476 -17.2545,-2.7904 z"
           id="path4358-28"
           sodipodi:nodetypes="cccccc" />
        <path
           style="fill:none;stroke:#000000;stroke-width:2;stroke-linecap:butt;stroke-linejoin:miter;stroke-dasharray:none;stroke-opacity:1"
           d="m 1445.9345,-1429.9839 2.2029,-3.7129"
           id="path4604-9" />
        <path
           style="fill:#916f6f;stroke:#000000;stroke-width:2.01038;stroke-linecap:butt;stroke-linejoin:miter;stroke-dasharray:none;stroke-opacity:1"
           d="m 1366.0293,-1487.4039 -3.0801,6.7289 46.3476,51.4795 16.2788,0.7101 21.9251,-1.452 2.0697,-7.3547"
           id="path4360-9" />
        <path
           style="fill:#806600;fill-opacity:1;stroke:#3b2313;stroke-width:2;stroke-linecap:butt;stroke-linejoin:miter;stroke-dasharray:none;stroke-opacity:1"
           d="m 1366.9825,-1487.0171 41.1088,-3.016 41.4948,52.7464 -20.9269,5.9605 -17.3947,-1.7121 z"
           id="path4358-3"
           sodipodi:nodetypes="cccccc" />
        <path
           style="fill:none;stroke:#000000;stroke-width:2;stroke-linecap:butt;stroke-linejoin:miter;stroke-dasharray:none;stroke-opacity:1"
           d="m 1409.2968,-1429.1955 1.9677,-3.8428"
           id="path4604-6" />
        <path
           style="fill:#916f6f;stroke:#000000;stroke-width:2.01038;stroke-linecap:butt;stroke-linejoin:miter;stroke-dasharray:none;stroke-opacity:1"
           d="m 1349.6389,-1491.028 -3.4927,6.5243 43.0567,54.262 16.2031,1.7211 21.9729,-0.086 2.5231,-7.2118"
           id="path4360-1" />
        <path
           style="fill:url(#linearGradient2773);fill-opacity:1;stroke:#3b2313;stroke-width:2;stroke-linecap:butt;stroke-linejoin:miter;stroke-dasharray:none;stroke-opacity:1"
           d="m 1350.5661,-1490.5827 41.2169,-0.4538 38.1343,55.2247 -21.2571,4.6476 -17.2545,-2.7904 z"
           id="path4358-2"
           sodipodi:nodetypes="cccccc" />
        <path
           style="fill:none;stroke:#000000;stroke-width:2;stroke-linecap:butt;stroke-linejoin:miter;stroke-dasharray:none;stroke-opacity:1"
           d="m 1389.2029,-1430.2417 2.2028,-3.7129"
           id="path4604-7" />
        <path
           style="fill:url(#linearGradient2765);fill-opacity:1;stroke:#3b2313;stroke-width:2;stroke-linecap:butt;stroke-linejoin:miter;stroke-dasharray:none;stroke-opacity:1"
           d="m 1374.5625,-1436.0057 -3.2797,6.6478 27.3081,0.056 2.8842,-6.5148 -42.8044,-60.7646 -19.7761,1.0119 z"
           id="path4362" />
        <path
           style="fill:none;stroke:#000000;stroke-width:2.02762;stroke-linecap:butt;stroke-linejoin:miter;stroke-dasharray:none;stroke-opacity:1"
           d="m 1370.9442,-1428.678 -35.3972,-62.0529 2.7719,-5.119"
           id="path4364" />
        <path
           style="fill:#ff6600;stroke:#000000;stroke-width:2;stroke-linecap:butt;stroke-linejoin:miter;stroke-dasharray:none;stroke-opacity:1"
           d="m 1374.5625,-1436.0057 26.9126,0.1889"
           id="path4366" />
        <path
           style="fill:#916f6f;fill-opacity:1;stroke-width:0.769207;stroke-linecap:square;stroke-dasharray:none;paint-order:stroke fill markers"
           d="m 1373.9479,-1432.4447 c 0.5483,-1.115 1.0808,-2.1339 1.1834,-2.2643 0.1763,-0.2241 0.8515,-0.2323 12.4164,-0.151 l 12.23,0.086 -0.1031,0.3567 c -0.057,0.1962 -0.4797,1.1975 -0.9401,2.225 l -0.837,1.8683 -0.7507,-0.022 c -0.4129,-0.012 -5.4048,-0.028 -11.0932,-0.035 -5.6884,-0.01 -10.9636,-0.018 -11.7226,-0.024 l -1.38,-0.011 z"
           id="path4533" />
        <path
           style="fill:#916f6f;stroke:#000000;stroke-width:2.01038;stroke-linecap:butt;stroke-linejoin:miter;stroke-dasharray:none;stroke-opacity:1"
           d="m 1297.293,-1492.0572 -3.4926,6.5243 43.0566,54.262 16.2032,1.7211 21.9729,-0.086 2.5231,-7.2118"
           id="path4360" />
        <path
           style="fill:url(#linearGradient2855);fill-opacity:1;stroke:#3b2313;stroke-width:2;stroke-linecap:butt;stroke-linejoin:miter;stroke-dasharray:none;stroke-opacity:1"
           d="m 1298.2203,-1491.612 41.2168,-0.4537 38.1344,55.2247 -21.2571,4.6476 -17.2545,-2.7904 z"
           id="path4358"
           sodipodi:nodetypes="cccccc" />
        <path
           style="fill:none;stroke:#000000;stroke-width:2;stroke-linecap:butt;stroke-linejoin:miter;stroke-dasharray:none;stroke-opacity:1"
           d="m 1336.857,-1431.2709 2.2029,-3.7129"
           id="path4604" />
      </g>
    </g>
  </g>
</svg>
