<?xml version="1.0" encoding="UTF-8" standalone="no"?>
<svg
   xmlns:dc="http://purl.org/dc/elements/1.1/"
   xmlns:cc="http://creativecommons.org/ns#"
   xmlns:rdf="http://www.w3.org/1999/02/22-rdf-syntax-ns#"
   xmlns:svg="http://www.w3.org/2000/svg"
   xmlns="http://www.w3.org/2000/svg"
   xmlns:sodipodi="http://sodipodi.sourceforge.net/DTD/sodipodi-0.dtd"
   xmlns:inkscape="http://www.inkscape.org/namespaces/inkscape"
   width="16.933332mm"
   height="16.186741mm"
   viewBox="0 0 16.933332 16.186741"
   version="1.1"
   id="svg13331"
   inkscape:version="1.0.2 (e86c870879, 2021-01-15)"
   sodipodi:docname="arquero_azul_down.svg">
  <defs
     id="defs13325">
    <inkscape:path-effect
       effect="bspline"
       id="path-effect71025"
       is_visible="true"
       lpeversion="1"
       weight="33.333333"
       steps="2"
       helper_size="0"
       apply_no_weight="true"
       apply_with_weight="true"
       only_selected="false" />
    <inkscape:path-effect
       effect="bspline"
       id="path-effect74605"
       is_visible="true"
       lpeversion="1"
       weight="33.333333"
       steps="2"
       helper_size="0"
       apply_no_weight="true"
       apply_with_weight="true"
       only_selected="false" />
    <inkscape:path-effect
       effect="bspline"
       id="path-effect79951"
       is_visible="true"
       lpeversion="1"
       weight="33.333333"
       steps="2"
       helper_size="0"
       apply_no_weight="true"
       apply_with_weight="true"
       only_selected="false" />
    <inkscape:path-effect
       effect="bspline"
       id="path-effect79935"
       is_visible="true"
       lpeversion="1"
       weight="33.333333"
       steps="2"
       helper_size="0"
       apply_no_weight="true"
       apply_with_weight="true"
       only_selected="false" />
    <inkscape:path-effect
       effect="bspline"
       id="path-effect74609-2"
       is_visible="true"
       lpeversion="1"
       weight="33.333333"
       steps="2"
       helper_size="0"
       apply_no_weight="true"
       apply_with_weight="true"
       only_selected="false" />
    <inkscape:path-effect
       effect="bspline"
       id="path-effect74609"
       is_visible="true"
       lpeversion="1"
       weight="33.333333"
       steps="2"
       helper_size="0"
       apply_no_weight="true"
       apply_with_weight="true"
       only_selected="false" />
    <inkscape:path-effect
       effect="bspline"
       id="path-effect66466"
       is_visible="true"
       lpeversion="1"
       weight="33.333333"
       steps="2"
       helper_size="0"
       apply_no_weight="true"
       apply_with_weight="true"
       only_selected="false" />
    <inkscape:path-effect
       effect="bspline"
       id="path-effect58394"
       is_visible="true"
       lpeversion="1"
       weight="33.333333"
       steps="2"
       helper_size="0"
       apply_no_weight="true"
       apply_with_weight="true"
       only_selected="false" />
    <inkscape:path-effect
       effect="bspline"
       id="path-effect58394-0"
       is_visible="true"
       lpeversion="1"
       weight="33.333333"
       steps="2"
       helper_size="0"
       apply_no_weight="true"
       apply_with_weight="true"
       only_selected="false" />
    <inkscape:path-effect
       effect="bspline"
       id="path-effect55093"
       is_visible="true"
       lpeversion="1"
       weight="33.333333"
       steps="2"
       helper_size="0"
       apply_no_weight="true"
       apply_with_weight="true"
       only_selected="false" />
    <inkscape:path-effect
       effect="bspline"
       id="path-effect44520-1"
       is_visible="true"
       lpeversion="1"
       weight="33.333333"
       steps="2"
       helper_size="0"
       apply_no_weight="true"
       apply_with_weight="true"
       only_selected="false" />
    <inkscape:path-effect
       effect="bspline"
       id="path-effect44528-3"
       is_visible="true"
       lpeversion="1"
       weight="33.333333"
       steps="2"
       helper_size="0"
       apply_no_weight="true"
       apply_with_weight="true"
       only_selected="false" />
    <inkscape:path-effect
       effect="bspline"
       id="path-effect55097-1"
       is_visible="true"
       lpeversion="1"
       weight="33.333333"
       steps="2"
       helper_size="0"
       apply_no_weight="true"
       apply_with_weight="true"
       only_selected="false" />
    <inkscape:path-effect
       effect="bspline"
       id="path-effect44520-1-6"
       is_visible="true"
       lpeversion="1"
       weight="33.333333"
       steps="2"
       helper_size="0"
       apply_no_weight="true"
       apply_with_weight="true"
       only_selected="false" />
    <inkscape:path-effect
       effect="bspline"
       id="path-effect44528-3-6"
       is_visible="true"
       lpeversion="1"
       weight="33.333333"
       steps="2"
       helper_size="0"
       apply_no_weight="true"
       apply_with_weight="true"
       only_selected="false" />
    <inkscape:path-effect
       effect="bspline"
       id="path-effect55097-1-4"
       is_visible="true"
       lpeversion="1"
       weight="33.333333"
       steps="2"
       helper_size="0"
       apply_no_weight="true"
       apply_with_weight="true"
       only_selected="false" />
    <inkscape:path-effect
       effect="bspline"
       id="path-effect89294"
       is_visible="true"
       lpeversion="1"
       weight="33.333333"
       steps="2"
       helper_size="0"
       apply_no_weight="true"
       apply_with_weight="true"
       only_selected="false" />
    <inkscape:path-effect
       effect="bspline"
       id="path-effect82888"
       is_visible="true"
       lpeversion="1"
       weight="33.333333"
       steps="2"
       helper_size="0"
       apply_no_weight="true"
       apply_with_weight="true"
       only_selected="false" />
    <inkscape:path-effect
       effect="bspline"
       id="path-effect86191"
       is_visible="true"
       lpeversion="1"
       weight="33.333333"
       steps="2"
       helper_size="0"
       apply_no_weight="true"
       apply_with_weight="true"
       only_selected="false" />
    <inkscape:path-effect
       effect="bspline"
       id="path-effect86191-1"
       is_visible="true"
       lpeversion="1"
       weight="33.333333"
       steps="2"
       helper_size="0"
       apply_no_weight="true"
       apply_with_weight="true"
       only_selected="false" />
  </defs>
  <sodipodi:namedview
     id="base"
     pagecolor="#ffffff"
     bordercolor="#666666"
     borderopacity="1.0"
     inkscape:pageopacity="0.0"
     inkscape:pageshadow="2"
     inkscape:zoom="0.35"
     inkscape:cx="621.68126"
     inkscape:cy="756.95684"
     inkscape:document-units="mm"
     inkscape:current-layer="layer1"
     inkscape:document-rotation="0"
     showgrid="false"
     fit-margin-top="0"
     fit-margin-left="0"
     fit-margin-right="0"
     fit-margin-bottom="0"
     inkscape:window-width="1366"
     inkscape:window-height="741"
     inkscape:window-x="0"
     inkscape:window-y="0"
     inkscape:window-maximized="0" />
  <metadata
     id="metadata13328">
    <rdf:RDF>
      <cc:Work
         rdf:about="">
        <dc:format>image/svg+xml</dc:format>
        <dc:type
           rdf:resource="http://purl.org/dc/dcmitype/StillImage" />
        <dc:title></dc:title>
      </cc:Work>
    </rdf:RDF>
  </metadata>
  <g
     inkscape:label="Capa 1"
     inkscape:groupmode="layer"
     id="layer1"
     transform="translate(58.653167,52.111497)">
    <g
       id="g13241"
       transform="matrix(0.06452043,0,0,0.06452043,-175.91929,-16.426018)">
      <g
         id="g107375"
         inkscape:export-filename="../../Desktop/GAME JAM/ELFO_2_F.png"
         inkscape:export-xdpi="11.359912"
         inkscape:export-ydpi="11.359912">
        <path
           style="fill:#796321;fill-opacity:1;stroke:#000000;stroke-width:2;stroke-linecap:butt;stroke-linejoin:miter;stroke-dasharray:none;stroke-opacity:1"
           d="m 2051.9311,-507.57472 2.3093,3.13139 -61.4597,46.73125 -1.9394,-2.62981 z"
           id="path81035-8-0" />
        <g
           id="g81561"
           transform="rotate(8.6161605,2660.2123,-167.39229)">
          <path
             style="fill:#8c412c;fill-opacity:1;stroke:#000000;stroke-width:2;stroke-linecap:butt;stroke-linejoin:miter;stroke-dasharray:none;stroke-opacity:1"
             d="m 1928.3957,-348.78719 c -16.9958,18.3591 -50.418,55.5004 -67.0496,74.39697 -16.6317,18.89656 -16.4728,19.54814 -15.453,20.76105 1.0197,1.21291 2.9004,2.98727 4.9829,4.35594 2.0825,1.36866 4.3666,2.33158 7.8742,2.21646 3.5075,-0.11512 8.2384,-1.30816 18.4008,-8.26982 10.1625,-6.96165 25.7558,-19.69142 43.2228,-35.56602 17.4669,-15.8746 36.8065,-34.89307 46.1814,-44.51414 9.3749,-9.62108 8.7846,-9.84442 4.5528,-12.6897 -4.2317,-2.84528 -12.1047,-8.31234 -16.808,-11.7833 -4.7033,-3.47097 -6.2366,-4.94569 -7.288,-5.89466 -1.0514,-0.94896 -1.6204,-1.37189 -18.6163,16.98722 z"
             id="path71023"
             inkscape:path-effect="#path-effect71025"
             inkscape:original-d="m 1944.8222,-367.56946 c -33.4221,37.14155 -66.8444,74.28279 -100.2667,111.42391 0.159,0.65187 0.3178,1.30347 0.4766,1.9549 1.8806,1.77453 3.7613,3.54888 5.6421,5.3231 2.2842,0.96311 4.5683,1.92607 6.8524,2.88878 4.7312,-1.19289 9.462,-2.38604 14.1931,-3.57928 15.5939,-12.73009 31.1872,-25.45986 46.7808,-38.19004 19.3403,-19.01904 38.6799,-38.03745 58.0197,-57.05644 -0.5902,-0.22316 -1.1805,-0.44645 -1.7707,-0.66999 -7.8733,-5.46709 -15.7463,-10.93412 -23.6193,-16.4014 -1.5336,-1.47466 -3.0669,-2.94946 -4.6005,-4.42452 -0.5692,-0.42275 -1.1382,-0.84576 -1.7075,-1.26902 z" />
        </g>
        <path
           style="fill:#008080;fill-opacity:1;stroke:#000000;stroke-width:2;stroke-linecap:butt;stroke-linejoin:miter;stroke-dasharray:none;stroke-opacity:1"
           d="m 2007.675,-467.26819 12.729,0.50473 47.729,-38.17629 -16.3013,0.86656 z"
           id="path81001" />
        <path
           style="fill:#f40000;fill-opacity:1;stroke:#000000;stroke-width:0.897533;stroke-linecap:butt;stroke-linejoin:miter;stroke-dasharray:none;stroke-opacity:1"
           d="m 2005.2158,-470.21867 1.7963,-12.61174 46.149,-40.07181 -3.7886,15.87856 z"
           id="path81001-7" />
        <path
           style="fill:#796321;fill-opacity:1;stroke:#000000;stroke-width:0.897533;stroke-linecap:butt;stroke-linejoin:miter;stroke-dasharray:none;stroke-opacity:1"
           d="m 2053.9541,-510.90465 2.4899,2.98715 -59.5339,49.21657 -2.091,-2.50873 z"
           id="path81035" />
        <path
           style="fill:#008080;fill-opacity:1;stroke:#000000;stroke-width:2;stroke-linecap:butt;stroke-linejoin:miter;stroke-dasharray:none;stroke-opacity:1"
           d="m 2015.1054,-457.61001 12.5702,1.12442 49.2067,-36.17353 -16.1763,0.0851 z"
           id="path81001-6" />
        <path
           style="fill:#008080;fill-opacity:1;stroke:#000000;stroke-width:2;stroke-linecap:butt;stroke-linejoin:miter;stroke-dasharray:none;stroke-opacity:1"
           d="m 2012.8245,-460.70297 2.43,-12.62578 47.7412,-38.16066 -4.5706,15.82243 z"
           id="path81001-7-9" />
        <path
           style="fill:#796321;fill-opacity:1;stroke:#000000;stroke-width:2;stroke-linecap:butt;stroke-linejoin:miter;stroke-dasharray:none;stroke-opacity:1"
           d="m 2063.1599,-499.35745 2.3092,3.13138 -61.4596,46.73129 -1.9395,-2.6299 z"
           id="path81035-8" />
        <path
           style="fill:#008080;fill-opacity:1;stroke:#000000;stroke-width:2;stroke-linecap:butt;stroke-linejoin:miter;stroke-dasharray:none;stroke-opacity:1"
           d="m 2003.5639,-474.93976 13.047,-2.85289 37.7591,-47.34928 -16.2869,5.03747 z"
           id="path81001-6-2" />
        <path
           style="fill:#008080;fill-opacity:1;stroke:#000000;stroke-width:2;stroke-linecap:butt;stroke-linejoin:miter;stroke-dasharray:none;stroke-opacity:1"
           d="m 2000.2486,-476.99821 -1.6919,-12.00399 35.6292,-48.67174 0.5818,15.51102 z"
           id="path81001-7-9-8" />
        <path
           style="fill:#796321;fill-opacity:1;stroke:#000000;stroke-width:0.897533;stroke-linecap:butt;stroke-linejoin:miter;stroke-dasharray:none;stroke-opacity:1"
           d="m 2038.3321,-526.90598 3.3566,2.08403 -46.653,60.52203 -2.819,-1.75024 z"
           id="path81035-8-2" />
        <path
           style="fill:#008080;fill-opacity:1;stroke:#000000;stroke-width:0.83;stroke-linecap:butt;stroke-linejoin:miter;stroke-dasharray:none;stroke-opacity:1"
           d="m 2003.8766,-465.82728 12.5703,1.12443 49.2066,-36.17359 -16.1762,0.0851 z"
           id="path81001-6-9" />
        <path
           style="fill:#008080;fill-opacity:1;stroke:#000000;stroke-width:2;stroke-linecap:butt;stroke-linejoin:miter;stroke-dasharray:none;stroke-opacity:1"
           d="m 2001.5957,-468.92025 2.4301,-12.62577 47.7413,-38.16061 -4.5707,15.82237 z"
           id="path81001-7-9-6" />
        <rect
           style="fill:#8c441c;fill-opacity:1;stroke:#000000;stroke-width:2;stroke-linecap:round;stroke-linejoin:round;stroke-dasharray:none;stroke-opacity:0.999967;paint-order:stroke fill markers"
           id="rect71079"
           width="45.756527"
           height="12.888234"
           x="902.99701"
           y="-1835.0833"
           ry="1.7967247"
           transform="rotate(50.188516)" />
        <path
           style="fill:#a8502a;fill-opacity:1;stroke:#000000;stroke-width:2;stroke-linecap:butt;stroke-linejoin:miter;stroke-dasharray:none;stroke-opacity:1"
           d="m 1988.6328,-434.64901 c 5.6162,4.40404 7.2983,3.81654 8.6255,2.91725 1.3273,-0.89929 2.2997,-2.1104 2.389,-3.25234 0.089,-1.14193 -0.7048,-2.2146 -5.5783,-7.36508 -4.8735,-5.15048 -13.8262,-14.37837 -18.4738,-18.81084 -4.6476,-4.43248 -4.9898,-4.06943 -5.9852,-3.8563 -0.9953,0.21313 -2.6437,0.27645 -3.5745,0.72297 -0.9308,0.44651 -1.1438,1.27597 -1.3775,2.41467 -0.2336,1.1387 -0.4879,2.58658 4.1603,8.00838 4.6482,5.42179 14.1983,14.81724 19.8145,19.22129 z"
           id="path74603"
           inkscape:path-effect="#path-effect74605"
           inkscape:original-d="m 1992.5669,-429.65746 c 1.6822,-0.58726 3.3643,-1.17477 5.0463,-1.76251 0.9725,-1.21098 1.9448,-2.42217 2.9173,-3.63347 -0.794,-1.07256 -1.5881,-2.14516 -2.3821,-3.21809 -8.953,-9.22805 -17.9057,-18.45592 -26.8585,-27.68415 -0.3422,0.3633 -0.6844,0.72634 -1.0266,1.08916 -1.6486,0.0635 -3.297,0.12685 -4.9455,0.18998 -0.2127,0.8298 -0.426,1.65919 -0.6391,2.48852 -0.2538,1.44813 -0.5086,2.89592 -0.7628,4.34356 9.5505,9.39608 19.1006,18.79154 28.651,28.187 z" />
        <path
           style="fill:none;stroke:#000000;stroke-width:0.973599;stroke-linecap:butt;stroke-linejoin:miter;stroke-dasharray:none;stroke-opacity:1"
           d="m 1892.1224,-398.56514 c 12.2461,-3.54809 24.4921,-7.09614 36.0274,-8.98177 11.5353,-1.88563 22.359,-2.10879 33.1832,-2.33196"
           id="path79949"
           inkscape:path-effect="#path-effect79951"
           inkscape:original-d="m 1892.1224,-398.56514 c 12.2462,-3.54788 24.4922,-7.09593 36.7383,-10.64423 10.8244,-0.22297 21.6481,-0.44621 32.4723,-0.6695" />
        <path
           style="fill:#a05a2c;fill-opacity:1;stroke:none;stroke-width:2;stroke-linecap:round;stroke-linejoin:round;stroke-dasharray:none;stroke-opacity:0.999967;paint-order:stroke fill markers"
           d="m 1869.0018,-374.1653 c -0.8125,-1.19181 -0.822,-1.42057 -0.098,-2.33462 1.5632,-1.97274 5.0226,-5.08126 15.9174,-14.30297 l 9.1176,-7.71791 4.5347,-1.29536 c 25.4188,-7.26081 36.5296,-9.02573 59.3145,-9.42227 l 1.6398,-0.0285 -0.7101,0.47856 c -0.3906,0.26311 -2.5932,1.7621 -4.8943,3.3313 -24.9099,16.98571 -48.4567,30.9242 -60.4564,35.78741 -5.7871,2.3454 -9.378,3.15834 -12.8455,2.90832 -4.0075,-0.28892 -6.4896,-1.59766 -9.6554,-5.0909 -0.6389,-0.70493 -1.478,-1.74589 -1.8647,-2.31324 z"
           id="path80241" />
        <path
           style="fill:#f4b65e;fill-opacity:1;stroke:#000000;stroke-width:1.05911;stroke-linecap:round;stroke-linejoin:round;stroke-dasharray:none;stroke-opacity:0.999967;paint-order:stroke fill markers"
           d="m 1975.6189,-444.50167 c -2.0288,-3.41139 -2.0467,-6.09569 -0.059,-8.7993 0.8708,-1.1843 2.5535,-2.42534 3.7528,-2.76782 0.9868,-0.28178 2.5221,-0.21659 3.4065,0.14457 1.6383,0.66909 3.6455,2.23795 6.6306,5.18259 2.6334,2.59777 2.5078,2.43595 2.2872,2.94383 -0.5426,1.25016 -4.8334,5.97837 -7.3486,8.09787 -1.6749,1.41028 -1.8478,1.52713 -2.3038,1.56054 -0.6417,0.0458 -1.0298,-0.13176 -1.871,-0.85604 -0.9618,-0.82813 -3.7277,-4.21637 -4.4948,-5.50634 z m 4.6822,4.75353 c 0.6694,0.43493 1.4749,0.52486 2.1095,0.23519 0.6922,-0.31601 3.2702,-2.62824 4.7777,-4.28394 3.5935,-3.94866 3.7465,-4.32931 2.3196,-5.77472 -4.1407,-4.19438 -6.1781,-5.58594 -8.2778,-5.65389 -1.7441,-0.0565 -3.3799,0.77426 -4.7844,2.42986 -2.1954,2.58804 -2.2134,5.27876 -0.058,8.67301 0.7837,1.23422 3.1481,3.87733 3.9133,4.37451 z"
           id="path75410" />
        <path
           style="fill:#f4b65e;fill-opacity:1;stroke:#000000;stroke-width:0.739595;stroke-linecap:butt;stroke-linejoin:miter;stroke-dasharray:none;stroke-opacity:1"
           d="m 1987.3348,-444.3534 c -0.5438,-0.6266 -1.6317,-1.8801 -3.0899,-3.30274 -1.4583,-1.42263 -3.2871,-3.01456 -4.3838,-3.50315 -1.0966,-0.48859 -1.461,0.12621 -1.0184,1.05125 0.4426,0.92504 1.6919,2.16025 3.0647,3.51375 1.3729,1.35351 2.8692,2.82528 3.6098,3.5406 0.7407,0.71533 0.7257,0.67413 0.851,0.61401 0.1254,-0.0601 0.3911,-0.13893 0.6283,-0.29284 0.2373,-0.15391 0.446,-0.38304 0.5882,-0.56117 0.1422,-0.17813 0.2179,-0.3053 0.2559,-0.36908 0.038,-0.0638 0.038,-0.064 -0.5058,-0.69063 z"
           id="path79933"
           inkscape:path-effect="#path-effect79935"
           inkscape:original-d="m 1987.8786,-443.72679 c -1.0876,-1.25323 -2.1757,-2.50652 -3.2632,-3.76004 -1.8289,-1.59182 -3.6577,-3.18372 -5.4865,-4.77592 -0.3643,0.61495 -0.7288,1.22968 -1.0931,1.84432 1.2494,1.23556 2.4987,2.47076 3.7481,3.70582 1.4963,1.47191 2.9926,2.94368 4.4889,4.41527 -0.015,-0.041 -0.03,-0.0822 -0.045,-0.12361 0.2659,-0.0786 0.5315,-0.15762 0.7975,-0.23657 0.2087,-0.22873 0.417,-0.45823 0.6259,-0.68716 0.076,-0.12697 0.152,-0.25397 0.2274,-0.38187 z" />
        <path
           style="fill:none;stroke:#000000;stroke-width:0.760233;stroke-linecap:butt;stroke-linejoin:miter;stroke-dasharray:none;stroke-opacity:1"
           d="m 1988.7795,-446.1203 c -1.2872,1.41182 -3.8613,4.23536 -5.4972,5.52209 -1.6358,1.28672 -2.3331,1.03687 -3.7791,-0.42152 -1.446,-1.45839 -3.6405,-4.12525 -4.1643,-6.47281 -0.5238,-2.34755 0.6233,-4.37575 2.0906,-5.72792 1.4674,-1.35217 3.2548,-2.02816 5.2147,-1.30678 1.9599,0.72138 4.092,2.8401 5.3573,4.09276 1.2652,1.25265 1.6638,1.6393 1.863,1.97881 0.1993,0.33951 0.1993,0.63148 0.1993,0.77752 0,0.14604 0,0.14603 -1.2843,1.55785 z"
           id="path74607-6"
           inkscape:path-effect="#path-effect74609-2"
           inkscape:original-d="m 1990.0666,-447.53212 c -2.5743,2.82361 -5.1484,5.64721 -7.7225,8.47061 -0.6977,-0.24983 -1.395,-0.49967 -2.0925,-0.74977 -2.1945,-2.6668 -4.389,-5.33363 -6.5835,-8.00071 1.1471,-2.02805 2.294,-4.05635 3.4412,-6.0846 1.7876,-0.67591 3.575,-1.35193 5.3626,-2.0281 2.1321,2.11892 4.2642,4.23763 6.3962,6.3561 0.3986,0.38681 0.7971,0.77347 1.1957,1.16007 0,0.29236 0,0.58433 0,0.87641 z" />
        <path
           style="fill:none;stroke:#000000;stroke-width:0.973599;stroke-linecap:butt;stroke-linejoin:miter;stroke-dasharray:none;stroke-opacity:1"
           d="m 1990.8597,-445.55627 c -1.6197,1.7902 -4.8588,5.37046 -6.9261,6.99398 -2.0672,1.62353 -2.9625,1.29048 -4.8354,-0.60743 -1.8729,-1.89792 -4.7233,-5.36064 -5.4336,-8.38405 -0.7104,-3.02341 0.7194,-5.60753 2.5703,-7.31796 1.8508,-1.71044 4.1226,-2.54705 6.6392,-1.58644 2.5166,0.96061 5.2776,3.71835 6.9161,5.34901 1.6386,1.63066 2.1546,2.13418 2.4157,2.57353 0.261,0.43934 0.2674,0.81434 0.2705,1.00175 0,0.18741 0,0.18741 -1.6167,1.97761 z"
           id="path74607"
           inkscape:path-effect="#path-effect74609"
           inkscape:original-d="m 1992.4793,-447.34647 c -3.2391,3.58057 -6.4783,7.16079 -9.7175,10.7408 -0.8955,-0.33289 -1.7908,-0.6659 -2.6861,-0.99922 -2.8505,-3.46266 -5.7009,-6.92536 -8.5512,-10.38828 1.4298,-2.58397 2.8596,-5.16809 4.2894,-7.75238 2.2719,-0.83642 4.5437,-1.67307 6.8156,-2.5099 2.7611,2.75797 5.5221,5.51575 8.2832,8.27333 0.516,0.5037 1.032,1.00721 1.5479,1.51052 0.01,0.37525 0.013,0.7503 0.019,1.12513 z" />
        <path
           style="fill:#ffd42a;fill-opacity:1;stroke:#000000;stroke-width:2;stroke-linecap:butt;stroke-linejoin:miter;stroke-dasharray:none;stroke-opacity:1"
           d="m 1882.3488,-475.87858 c -10.5154,16.17336 -14.7513,47.3486 -15.0418,65.24911 -0.2905,17.9005 3.3642,22.52448 18.6992,25.16393 15.3351,2.63945 42.3486,3.29437 58.7005,2.64257 16.3518,-0.65179 22.0396,-2.61016 23.0448,-19.24674 1.0052,-16.63658 -2.6722,-47.95034 -10.3357,-65.78402 -7.6635,-17.83368 -19.3128,-22.18634 -33.5351,-23.77752 -14.2223,-1.59117 -31.0165,-0.4207 -41.5319,15.75267 z"
           id="path66464"
           inkscape:path-effect="#path-effect66466"
           inkscape:original-d="m 1876.0695,-490.88144 c -4.2358,31.17626 -8.4717,62.3515 -12.7081,93.52795 3.6551,4.62452 7.3098,9.24848 10.9644,13.87243 27.0155,0.65523 54.029,1.31015 81.0444,1.96485 5.6884,-1.95824 11.3762,-3.91659 17.064,-5.87534 -3.6773,-31.31476 -7.3547,-62.62852 -11.0324,-93.94318 -11.6495,-4.35255 -23.2989,-8.7052 -34.9488,-13.0582 -16.7946,1.17079 -33.5888,2.34126 -50.3835,3.51149 z"
           sodipodi:nodetypes="cccccccc" />
        <g
           id="g31954-0-2"
           transform="rotate(136.71482,1643.2288,-85.808665)">
          <path
             id="rect10563-5-3-8-7"
             style="fill:#fbdab3;fill-opacity:1;stroke:#000000;stroke-width:5;stroke-linecap:square;stroke-dasharray:none;stroke-opacity:1;paint-order:stroke fill markers"
             d="m 1296.1221,-13.285499 c 2.0169,0.905769 2.9115,3.258749 2.0057,5.2756786 l -20.2204,45.0257514 c -0.9058,2.01693 -3.2588,2.91148 -5.2757,2.0057 l -12.1855,-5.47232 c -0.5595,-0.25127 -1.0324,-0.61407 -1.4046,-1.05001 l -33.7596,-15.16094 c -2.0169,-0.90578 -2.9114,-3.25876 -2.0057,-5.27569 l 5.4724,-12.18545137 c 0.9057,-2.01693003 3.2587,-2.91149003 5.2756,-2.00571003 l 31.6802,14.2271114 12.9564,-28.85075 c 0.9058,-2.01693 3.2588,-2.91148 5.2757,-2.0057 z" />
          <ellipse
             style="fill:#fbdab3;fill-opacity:1;stroke:#000000;stroke-width:5;stroke-linecap:square;stroke-dasharray:none;stroke-opacity:1;paint-order:stroke fill markers"
             id="path470-4-6-9-8-6"
             cx="-1288.2739"
             cy="-15.744298"
             rx="18.918386"
             ry="18.918385"
             transform="scale(-1,1)" />
        </g>
        <g
           id="g31954-0-2-1"
           transform="matrix(0.72795013,0.68563009,0.68563009,-0.72795013,1050.803,-1280.9811)">
          <path
             id="rect10563-5-3-8-7-3"
             style="fill:#fbdab3;fill-opacity:1;stroke:#000000;stroke-width:5;stroke-linecap:square;stroke-dasharray:none;stroke-opacity:1;paint-order:stroke fill markers"
             d="m 1296.1221,-13.285499 c 2.0169,0.905769 2.9115,3.258749 2.0057,5.2756786 l -20.2204,45.0257514 c -0.9058,2.01693 -3.2588,2.91148 -5.2757,2.0057 l -12.1855,-5.47232 c -0.5595,-0.25127 -1.0324,-0.61407 -1.4046,-1.05001 l -33.7596,-15.16094 c -2.0169,-0.90578 -2.9114,-3.25876 -2.0057,-5.27569 l 5.4724,-12.18545137 c 0.9057,-2.01693003 3.2587,-2.91149003 5.2756,-2.00571003 l 31.6802,14.2271114 12.9564,-28.85075 c 0.9058,-2.01693 3.2588,-2.91148 5.2757,-2.0057 z" />
          <ellipse
             style="fill:#fbdab3;fill-opacity:1;stroke:#000000;stroke-width:5;stroke-linecap:square;stroke-dasharray:none;stroke-opacity:1;paint-order:stroke fill markers"
             id="path470-4-6-9-8-6-2"
             cx="-1288.2739"
             cy="-15.744298"
             rx="18.918386"
             ry="18.918385"
             transform="scale(-1,1)" />
        </g>
        <path
           style="fill:#fbdab3;fill-opacity:1;stroke:#000000;stroke-width:2;stroke-linecap:butt;stroke-linejoin:miter;stroke-dasharray:none;stroke-opacity:1"
           d="m 1960.9154,-450.97345 c 2.7671,0.97193 7.7007,1.70448 11.6238,0.73279 3.9231,-0.9717 6.8357,-3.64753 12.1813,-9.49218 5.3456,-5.84465 13.1239,-14.85782 16.3824,-19.90581 3.2585,-5.04799 1.9968,-6.13079 -2.0376,-4.63645 -4.0344,1.49433 -10.8411,5.566 -16.88,8.00484 -6.0389,2.43883 -11.3099,3.24473 -15.2702,4.07484 -3.9602,0.8301 -6.6094,1.68438 -8.0524,4.65971 -1.4429,2.97532 -1.6794,8.07116 -1.4972,11.22495 0.1821,3.1538 0.7827,4.36537 3.5499,5.33731 z"
           id="path58392"
           inkscape:path-effect="#path-effect58394"
           inkscape:original-d="m 1958.7486,-450.73412 c 4.9339,0.73282 9.8675,1.46538 14.8009,2.19767 2.913,-2.67564 5.8257,-5.35145 8.7381,-8.02757 7.7788,-9.01325 15.5571,-18.02641 23.3353,-27.04001 -1.2615,-1.08258 -2.5232,-2.16539 -3.7852,-3.24848 -6.8066,4.07207 -13.6133,8.14371 -20.4203,12.21517 -5.271,0.8062 -10.542,1.61211 -15.8134,2.41777 -2.649,0.85458 -5.2982,1.70886 -7.9478,2.5629 -0.2361,5.0963 -0.4726,10.19213 -0.7093,15.28781 0.6008,1.21186 1.2014,2.42342 1.8017,3.63474 z" />
        <path
           style="fill:#fbdab3;fill-opacity:1;stroke:#000000;stroke-width:2;stroke-linecap:butt;stroke-linejoin:miter;stroke-dasharray:none;stroke-opacity:1"
           d="m 1881.1322,-451.12748 c -2.7671,0.97193 -7.7007,1.70448 -11.6238,0.73279 -3.9231,-0.9717 -6.8357,-3.64753 -12.1813,-9.49218 -5.3456,-5.84465 -13.1239,-14.85782 -16.3824,-19.90581 -3.2585,-5.04799 -1.9968,-6.13079 2.0376,-4.63645 4.0344,1.49433 10.8411,5.566 16.88,8.00484 6.0389,2.43883 11.3099,3.24473 15.2702,4.07484 3.9602,0.8301 6.6094,1.68438 8.0524,4.65971 1.4429,2.97532 1.6794,8.07116 1.4972,11.22495 -0.1821,3.1538 -0.7827,4.36537 -3.5499,5.33731 z"
           id="path58392-5"
           inkscape:path-effect="#path-effect58394-0"
           inkscape:original-d="m 1883.299,-450.88815 c -4.9339,0.73282 -9.8675,1.46538 -14.8009,2.19767 -2.913,-2.67564 -5.8257,-5.35145 -8.7381,-8.02757 -7.7788,-9.01325 -15.5571,-18.02641 -23.3353,-27.04001 1.2615,-1.08258 2.5232,-2.16539 3.7852,-3.24848 6.8066,4.07207 13.6133,8.14371 20.4203,12.21517 5.271,0.8062 10.542,1.61211 15.8134,2.41777 2.649,0.85458 5.2982,1.70886 7.9478,2.5629 0.2361,5.0963 0.4726,10.19213 0.7093,15.28781 -0.6008,1.21186 -1.2014,2.42342 -1.8017,3.63474 z" />
        <circle
           style="fill:#fbdab3;fill-opacity:1;stroke:#000000;stroke-width:5.40807;stroke-linecap:square;stroke-dasharray:none;stroke-opacity:1;paint-order:stroke fill markers"
           id="path470-7-9-8"
           cx="1921.421"
           cy="-460.25876"
           r="47.295967" />
        <path
           style="fill:none;stroke:#000000;stroke-width:0.993884;stroke-linecap:butt;stroke-linejoin:miter;stroke-dasharray:none;stroke-opacity:1"
           d="m 1912.7839,-438.44586 c 1.971,0.52027 3.9419,1.0405 5.6465,1.3101 1.7046,0.2696 3.1429,0.2886 5.1275,-0.5435 1.9846,-0.83209 4.5155,-2.51522 7.0465,-4.1984"
           id="path55091"
           inkscape:path-effect="#path-effect55093"
           inkscape:original-d="m 1912.7839,-438.44586 c 1.971,0.52039 3.9419,1.04063 5.9127,1.5607 1.4384,0.0192 2.8767,0.0382 4.3149,0.057 2.5311,-1.68305 5.062,-3.36618 7.5929,-5.0495" />
        <path
           style="fill:#ffdd55;fill-opacity:1;stroke:#000000;stroke-width:0.993884;stroke-linecap:butt;stroke-linejoin:miter;stroke-dasharray:none;stroke-opacity:1"
           d="m 1947.1344,-470.02695 c -1.7109,1.14685 -7.2304,3.28813 -10.4717,4.32523 -3.2414,1.03711 -4.2045,0.97022 -4.9933,0.51007 -0.7888,-0.46016 -1.4033,-1.3136 -1.7616,-1.88937 -0.3583,-0.57578 -0.4603,-0.87399 2.0395,-1.56065 2.4998,-0.68667 7.6013,-1.76172 11.2008,-2.22309 3.5996,-0.46137 5.6972,-0.30903 3.9863,0.83781 z"
           id="path44518-1"
           inkscape:path-effect="#path-effect44520-1"
           inkscape:original-d="m 1950.9431,-471.02143 c -5.5196,2.14134 -11.0391,4.28261 -16.5582,6.42374 -0.9636,-0.0668 -1.9267,-0.13369 -2.8897,-0.20069 -0.6147,-0.85333 -1.2293,-1.70676 -1.8437,-2.56027 -0.102,-0.29814 -0.2041,-0.59632 -0.306,-0.89462 5.1016,-1.07497 10.2031,-2.15002 15.3047,-3.2252 2.0975,0.15246 4.1951,0.30482 6.2929,0.45704 z" />
        <path
           style="fill:#ffffff;fill-opacity:1;stroke:#000000;stroke-width:0.993884;stroke-linecap:butt;stroke-linejoin:miter;stroke-dasharray:none;stroke-opacity:1"
           d="m 1938.0091,-451.09444 c -2.8354,0.60096 -6.5752,0.16682 -8.7058,-0.38678 -2.1306,-0.55359 -2.6522,-1.22663 -2.0062,-2.70994 0.6459,-1.48331 2.4595,-3.77699 3.615,-4.96408 1.1556,-1.18709 1.6531,-1.26747 4.3816,-1.50789 2.7286,-0.24041 7.6882,-0.64085 10.0428,-0.60284 2.3545,0.038 2.104,0.51425 1.5648,1.63699 -0.5392,1.12274 -1.3669,2.8919 -2.7464,4.59461 -1.3794,1.70272 -3.3104,3.33896 -6.1458,3.93993 z"
           id="path44526-0"
           inkscape:path-effect="#path-effect44528-3"
           inkscape:original-d="m 1938.9137,-450.05931 c -3.74,-0.434 -7.4798,-0.86815 -11.2194,-1.30244 -0.5218,-0.67292 -1.0434,-1.34595 -1.5648,-2.01913 1.8135,-2.29361 3.6271,-4.58727 5.4408,-6.88109 0.4974,-0.0803 0.9949,-0.16063 1.4926,-0.24115 4.9594,-0.40031 9.919,-0.80075 14.8788,-1.20132 -0.2508,0.47641 -0.5013,0.95268 -0.7517,1.42882 -0.8279,1.76936 -1.6557,3.5385 -2.4833,5.30754 -1.9312,1.63643 -3.8622,3.27266 -5.793,4.90877 z" />
        <path
           style="fill:#7fff2a;stroke:#000000;stroke-width:0.993884;stroke-linecap:butt;stroke-linejoin:miter;stroke-dasharray:none;stroke-opacity:1"
           d="m 1934.92,-451.05686 c -1.5868,-0.013 -3.5029,-0.17414 -4.8294,-0.43976 -1.3265,-0.26562 -2.0635,-0.63563 -2.4323,-1.13818 -0.3687,-0.50256 -0.3691,-1.13766 0.05,-2.09433 0.419,-0.95668 1.2575,-2.23481 2.0713,-3.22023 0.8138,-0.98542 1.6032,-1.67811 3.1235,-2.14272 1.5203,-0.4646 3.7716,-0.70104 5.0778,-0.74102 1.3062,-0.04 1.6671,0.11652 1.9759,0.7934 0.3088,0.67689 0.5654,1.87401 0.6072,3.05362 0.042,1.17961 -0.131,2.34167 -0.4238,3.28412 -0.2927,0.94245 -0.7052,1.66519 -1.5403,2.09407 -0.8351,0.42887 -2.0929,0.56404 -3.6798,0.55103 z"
           id="path55095-3"
           inkscape:path-effect="#path-effect55097-1"
           inkscape:original-d="m 1935.2494,-450.90872 c -1.9162,-0.161 -3.8323,-0.3221 -5.748,-0.48338 -0.7374,-0.36993 -1.4744,-0.74002 -2.2115,-1.11022 -10e-5,-0.63504 0,-1.27014 -10e-4,-1.90544 0.8383,-1.27808 1.6767,-2.55621 2.5153,-3.83453 0.7891,-0.69253 1.5785,-1.38518 2.368,-2.07798 2.2511,-0.2363 4.5024,-0.47274 6.7539,-0.70931 0.3608,0.15665 0.7217,0.31315 1.0827,0.46952 0.2565,1.19728 0.5133,2.39437 0.7699,3.59135 -0.1729,1.16224 -0.3459,2.32429 -0.5187,3.48624 -0.4127,0.72291 -0.8252,1.44565 -1.2375,2.16828 -1.2578,0.13521 -2.5156,0.27046 -3.7731,0.40547 z" />
        <path
           style="fill:#ffdd55;fill-opacity:1;stroke:#000000;stroke-width:0.993884;stroke-linecap:butt;stroke-linejoin:miter;stroke-dasharray:none;stroke-opacity:1"
           d="m 1894.8334,-470.02694 c 1.7109,1.14684 7.2304,3.28812 10.4717,4.32522 3.2414,1.03711 4.2045,0.97022 4.9933,0.51007 0.7888,-0.46016 1.4033,-1.3136 1.7616,-1.88939 0.3583,-0.57579 0.4603,-0.87397 -2.0395,-1.56063 -2.4998,-0.68667 -7.6013,-1.76172 -11.2008,-2.22309 -3.5996,-0.46137 -5.6972,-0.30902 -3.9863,0.83782 z"
           id="path44518-1-0"
           inkscape:path-effect="#path-effect44520-1-6"
           inkscape:original-d="m 1891.0247,-471.02143 c 5.5196,2.14134 11.0391,4.28261 16.5582,6.42374 0.9636,-0.0668 1.9267,-0.13369 2.8897,-0.20069 0.6147,-0.85333 1.2293,-1.70676 1.8437,-2.56027 0.1021,-0.29814 0.2041,-0.59632 0.306,-0.89462 -5.1016,-1.07497 -10.2031,-2.15002 -15.3047,-3.22519 -2.0975,0.15246 -4.1951,0.30481 -6.2929,0.45703 z" />
        <path
           style="fill:#ffffff;fill-opacity:1;stroke:#000000;stroke-width:0.993884;stroke-linecap:butt;stroke-linejoin:miter;stroke-dasharray:none;stroke-opacity:1"
           d="m 1903.9587,-451.09444 c 2.8354,0.60096 6.5752,0.16682 8.7058,-0.38678 2.1306,-0.55359 2.6522,-1.22663 2.0062,-2.70994 -0.6459,-1.48331 -2.4595,-3.77699 -3.615,-4.96408 -1.1556,-1.1871 -1.6531,-1.26748 -4.3816,-1.50789 -2.7286,-0.24042 -7.6882,-0.64086 -10.0427,-0.60286 -2.3546,0.038 -2.104,0.51426 -1.5649,1.637 0.5392,1.12275 1.3669,2.89191 2.7464,4.59462 1.3794,1.70272 3.3104,3.33896 6.1458,3.93993 z"
           id="path44526-0-4"
           inkscape:path-effect="#path-effect44528-3-6"
           inkscape:original-d="m 1903.0541,-450.05931 c 3.74,-0.434 7.4798,-0.86815 11.2194,-1.30244 0.5218,-0.67292 1.0434,-1.34595 1.5648,-2.01913 -1.8135,-2.29361 -3.6271,-4.58727 -5.4408,-6.88109 -0.4974,-0.0803 -0.9949,-0.16063 -1.4925,-0.24115 -4.9595,-0.40031 -9.9191,-0.80075 -14.8788,-1.20132 0.2507,0.47641 0.5012,0.95268 0.7516,1.42882 0.8279,1.76936 1.6557,3.5385 2.4833,5.30754 1.9312,1.63643 3.8622,3.27266 5.793,4.90877 z" />
        <path
           style="fill:#7fff2a;fill-opacity:1;stroke:#000000;stroke-width:0.993884;stroke-linecap:butt;stroke-linejoin:miter;stroke-dasharray:none;stroke-opacity:1"
           d="m 1907.6765,-450.98929 c 0.9581,-0.0806 2.8742,-0.2417 4.2007,-0.50731 1.3265,-0.26561 2.0635,-0.63563 2.4321,-1.1382 0.3686,-0.50256 0.3686,-1.13766 -0.051,-2.09433 -0.4191,-0.95668 -1.2576,-2.23481 -2.0714,-3.22023 -0.8138,-0.98542 -1.6031,-1.67806 -3.1235,-2.14269 -1.5203,-0.46463 -3.7716,-0.70107 -5.0778,-0.74105 -1.3062,-0.04 -1.6671,0.11652 -1.9759,0.7934 -0.3088,0.67689 -0.5654,1.87399 -0.6072,3.05361 -0.042,1.17961 0.1311,2.34167 0.4238,3.28411 0.2928,0.94244 0.7052,1.6652 1.5403,2.09408 0.8351,0.42887 2.0929,0.56404 2.7217,0.63161 0.6288,0.0676 0.6298,0.0676 1.5878,-0.013 z"
           id="path55095-3-6"
           inkscape:path-effect="#path-effect55097-1-4"
           inkscape:original-d="m 1906.7185,-450.90872 c 1.9161,-0.161 3.8322,-0.3221 5.748,-0.48338 0.7373,-0.36993 1.4743,-0.74002 2.2114,-1.11022 1e-4,-0.63504 0,-1.27014 0,-1.90544 -0.8383,-1.27808 -1.6767,-2.55621 -2.5153,-3.83453 -0.7891,-0.69253 -1.5784,-1.38518 -2.368,-2.07798 -2.2511,-0.2363 -4.5024,-0.47274 -6.7539,-0.70931 -0.3608,0.15665 -0.7217,0.31315 -1.0827,0.46952 -0.2565,1.19728 -0.5132,2.39437 -0.7699,3.59135 0.1729,1.16224 0.3459,2.32429 0.5188,3.48624 0.4126,0.72291 0.8251,1.44565 1.2374,2.16828 1.2578,0.13521 2.5156,0.27046 3.7732,0.40547 z" />
        <path
           style="fill:none;fill-opacity:1;stroke:none;stroke-width:1.05911;stroke-linecap:round;stroke-linejoin:round;stroke-dasharray:none;stroke-opacity:0.999967;paint-order:stroke fill markers"
           d="m 1871.1261,-356.54718 c -0.3641,-0.38654 -0.5817,-0.72525 -0.5557,-0.86506 0.2103,-1.1307 6.4931,-8.78502 16.1536,-19.67965 l 5.9914,-6.75487 4.5906,-2.07963 c 8.6077,-3.8996 12.7393,-5.65552 18.2873,-7.77189 10.7278,-4.09252 20.7342,-6.9128 31.7456,-8.94743 3.0928,-0.5715 7.1544,-1.24607 7.2094,-1.1973 0.1163,0.10315 -11.4516,10.68131 -18.2799,16.71583 -18.6679,16.49792 -34.7949,28.93883 -43.0811,33.23371 -6.24,3.23444 -11.5433,4.0385 -15.4409,2.34133 -1.4705,-0.64038 -5.0918,-3.37264 -6.6193,-4.99418 z"
           id="path80166" />
        <path
           style="fill:#000080;fill-opacity:1;stroke:#000000;stroke-width:2;stroke-linecap:butt;stroke-linejoin:miter;stroke-dasharray:none;stroke-opacity:1"
           d="m 1896.4137,-416.59807 c -0.9218,1.18535 -0.9822,4.25838 0.2987,6.63412 1.2809,2.37573 3.9028,4.05411 10.3375,5.33037 6.4347,1.27625 16.6819,2.15044 23.5328,1.58176 6.8508,-0.56868 10.3053,-2.58016 12.2203,-5.32537 1.915,-2.74522 2.2906,-6.22434 1.8729,-7.67572 -0.4178,-1.45139 -1.629,-0.87469 -4.7631,0.13547 -3.1341,1.01015 -8.1908,2.45371 -13.0539,3.17553 -4.8631,0.72182 -9.5323,0.72182 -13.8264,-0.005 -4.294,-0.72639 -8.2127,-2.17921 -11.0635,-3.25684 -2.8508,-1.07764 -4.6335,-1.78009 -5.5553,-0.59474 z"
           id="path89292"
           inkscape:path-effect="#path-effect89294"
           inkscape:original-d="m 1895.5524,-418.48598 c -0.06,3.07327 -0.1206,6.1463 -0.1814,9.21907 2.6223,1.67872 5.2441,3.35716 7.8658,5.03533 10.2478,0.87451 20.495,1.74869 30.7421,2.62263 3.4548,-2.01125 6.9093,-4.02269 10.3635,-6.03445 0.3759,-3.47898 0.7515,-6.9581 1.1269,-10.43753 -1.211,0.57695 -2.4223,1.15364 -3.6338,1.73006 -5.0567,1.44389 -10.1134,2.88745 -15.1705,4.33078 -4.6692,2.7e-4 -9.3384,2.7e-4 -14.0079,0 -3.9187,-1.45261 -7.8374,-2.90544 -11.7564,-4.35856 -1.7825,-0.7022 -3.5653,-1.40462 -5.3483,-2.10733 z" />
        <path
           style="fill:#8c441c;fill-opacity:1;stroke:#000000;stroke-width:2.26296;stroke-linecap:butt;stroke-linejoin:miter;stroke-dasharray:none;stroke-opacity:1"
           d="m 1876.3716,-370.5609 c 0.6123,0.92941 1.8367,2.78797 18.9877,-6.44917 17.151,-9.23715 50.2274,-29.56866 67.0369,-40.93903 16.8094,-11.37037 17.3514,-13.77933 16.7857,-14.97809 -0.5656,-1.19876 -2.239,-1.18706 -19.0852,8.64785 -16.8462,9.83492 -48.8636,29.49235 -65.4486,39.92772 -16.5849,10.43537 -17.7369,11.64832 -18.3128,12.25476 -0.576,0.60645 -0.576,0.60655 0.036,1.53596 z"
           id="path82886"
           inkscape:path-effect="#path-effect82888"
           inkscape:original-d="m 1875.7593,-371.49031 c 1.2246,1.85881 2.4491,3.71731 3.6731,5.5755 33.0781,-20.33204 66.1545,-40.66357 99.2313,-60.99581 0.5423,-2.40877 1.0843,-4.81772 1.6259,-7.22703 -1.6733,0.0119 -3.3467,0.0239 -5.0206,0.0351 -32.0183,19.65848 -64.0357,39.31588 -96.0539,58.97338 -1.1516,1.21323 -2.3036,2.42615 -3.4558,3.63876 z" />
        <path
           id="path58434"
           style="fill:#ffdd55;fill-opacity:1;stroke:#000000;stroke-width:2;stroke-linecap:butt;stroke-linejoin:miter;stroke-dasharray:none;stroke-opacity:1"
           d="m 1916.9451,-509.57826 c -7.1894,-0.0469 -14.5256,0.97034 -21.2576,3.39411 -9.792,3.52551 -18.3047,10.02596 -22.9015,15.97526 -4.3394,5.61627 -8.0903,14.82163 -8.74,18.87533 -0.784,4.89121 -0.673,15.05619 1.1861,27.4932 0.9296,6.21851 2.3154,14.67056 3.1968,19.26325 0.6611,3.44481 2.4563,12.06284 3.764,16.31752 2.6154,8.50941 8.2872,11.33099 9.7402,11.93887 1.4529,0.60788 -1.551,-4.8645 -2.6024,-6.97148 -0.7818,-1.56696 -1.7467,-7.30239 -2.1116,-9.57519 -0.2123,-1.32185 -0.8731,-8.66863 -1.1799,-10.32395 -0.3256,-1.75686 -0.9405,-12.50126 -0.8585,-19.08456 0.079,-6.3416 2.7975,-12.03266 4.329,-17.87591 1.5314,-5.84325 2.4639,-11.80376 1.9895,-15.44764 -0.01,-0.0646 -0.021,-0.12292 -0.03,-0.18604 1.588,-1.4931 3.1505,-3.21495 4.9522,-4.55217 3.1735,-2.35543 7.0923,-3.49017 11.7155,-3.22771 4.6231,0.26245 9.9503,1.92169 14.7805,2.08307 4.8302,0.16138 9.1632,-1.17473 15.258,-0.73794 6.0947,0.4368 13.951,2.64621 19.7564,4.04162 5.8054,1.3954 9.5598,1.97668 11.9983,3.85558 2.4385,1.87891 3.9667,3.59325 3.8934,5.92186 0.5547,1.99769 -0.091,11.99131 -0.1489,15.97952 -0.076,5.25161 0.3006,13.7791 -0.071,20.66519 -0.1835,3.40036 -1.9974,10.88327 -3.1659,13.26386 -0.845,1.72163 -4.7469,9.0545 -5.5552,9.72506 -0.4296,0.35636 -5.2897,6.81023 -5.1696,7.37802 0.2402,1.13559 3.9224,-0.0309 8.1083,-2.78714 4.1859,-2.75624 8.1633,-8.51587 9.3997,-10.62587 1.7301,-2.95247 4.6479,-11.55313 5.6163,-18.91454 0.5805,-4.41219 0.955,-10.50905 0.8724,-14.81007 -0.081,-4.23574 -0.219,-10.32565 -0.5681,-14.27795 -0.5381,-6.09295 -2.9714,-17.36208 -5.7203,-21.57418 -3.0736,-4.70946 -7.9307,-10.62531 -14.8616,-15.23162 -6.9308,-4.60634 -15.9344,-7.90283 -25.9721,-9.27592 -3.1368,-0.4291 -6.3744,-0.67011 -9.6423,-0.69144 z"
           sodipodi:nodetypes="sssssssssssssscsssssscsssssssssssssss" />
        <path
           style="fill:#000000;fill-opacity:1;stroke:#000000;stroke-width:2;stroke-linecap:butt;stroke-linejoin:miter;stroke-dasharray:none;stroke-opacity:1"
           d="m 1901.5232,-551.96912 c -0.031,0.66031 -0.9211,4.23168 -3.242,8.27198 -2.3209,4.04031 -6.0722,8.54933 -11.6448,13.54917 -5.5727,4.99984 -12.9663,10.49027 -18.5084,16.46713 -5.5421,5.97687 -9.2325,12.43971 -11.6968,21.97624 -2.4643,9.53653 -3.7025,22.14615 -3.1284,35.03193 0.574,12.88577 2.9602,26.04698 4.1269,32.70452 1.1667,6.65753 1.1142,6.81096 -0.1741,7.06788 -1.2883,0.25693 -3.812,0.61758 -6.336,0.97827 0,0 -1.7087,-13.85369 -1.7087,-13.85369 0,0 -1.7084,-13.85404 -1.7084,-13.85404 -0.1156,-8.96494 -0.2311,-17.92951 0.2223,-26.03041 0.4534,-8.10089 1.4758,-15.33743 4.1141,-23.03972 2.6383,-7.70228 6.8924,-15.86999 12.4115,-22.45883 5.5192,-6.58883 12.3033,-11.59835 17.8159,-15.94238 5.5126,-4.34402 9.7533,-8.02234 11.8739,-9.86163 2.1205,-1.83928 5.9578,-7.16566 6.3718,-8.29089 0.4141,-1.12524 1.2422,-3.37585 1.2112,-2.71553 z"
           id="path86189"
           inkscape:path-effect="#path-effect86191"
           inkscape:original-d="m 1902.3825,-554.88045 c -0.8904,3.5716 -1.7806,7.14296 -2.6705,10.71408 -3.7517,4.50953 -7.5029,9.0186 -11.2541,13.52744 -7.3941,5.49087 -14.7878,10.98125 -22.1813,16.47152 -3.6908,6.4634 -7.3812,12.92623 -11.0714,19.38894 -1.2385,12.61038 -2.4767,25.22 -3.7147,37.82949 2.386,13.16214 4.7722,26.32334 7.1586,39.4845 -0.053,0.15375 -0.1053,0.30725 -0.1576,0.46041 -2.5242,0.36094 -7.5719,1.08207 -7.5719,1.08207 l -1.7087,-13.85369 -1.7084,-13.85404 c 0,0 -0.2314,-17.92951 -0.3467,-26.89482 1.0222,-7.23651 2.0446,-14.47305 3.0673,-21.70993 4.254,-8.1677 8.5081,-16.3354 12.7625,-24.50356 6.7841,-5.00939 13.5682,-10.01888 20.3526,-15.02883 4.2407,-3.67818 8.4815,-7.35647 12.7225,-11.03511 l 3.8373,-5.32638 c 0.828,-2.2505 1.6561,-4.50112 2.4845,-6.75209 z"
           sodipodi:nodetypes="cccccccccccccccccc" />
        <path
           style="fill:#2b1100;fill-opacity:1;stroke:#000000;stroke-width:2;stroke-linecap:butt;stroke-linejoin:miter;stroke-dasharray:none;stroke-opacity:1"
           d="m 1942.562,-303.35583 c -0.2416,-0.61532 -2.2323,-3.71111 -5.7286,-6.79119 -3.4962,-3.08007 -8.4976,-6.14432 -15.3815,-9.08795 -6.8839,-2.94363 -15.6498,-5.76655 -22.8188,-9.6452 -7.169,-3.87865 -12.7406,-8.81257 -18.139,-17.05122 -5.3985,-8.23865 -10.6235,-19.78136 -14.2212,-32.16803 -3.5977,-12.38667 -5.5679,-25.61652 -6.6026,-32.29571 -1.0347,-6.6792 -1.1339,-6.80784 -2.4365,-6.6371 -1.3026,0.17075 -3.8083,0.64031 -6.3143,1.10993 0,0 2.8343,13.66788 2.8343,13.66788 0,0 2.8348,13.66811 2.8348,13.66811 2.7717,8.52649 5.5433,17.05261 8.5762,24.57803 3.0329,7.52543 6.3267,14.04944 11.3004,20.49523 4.9737,6.44579 11.6271,12.813 18.9711,17.27851 7.344,4.46552 15.3781,7.02896 21.9943,9.37088 6.6163,2.34192 11.8142,4.46216 14.4133,5.52236 2.5992,1.06021 7.9447,4.87078 8.6984,5.80325 0.7537,0.93247 2.2612,2.79753 2.0197,2.18222 z"
           id="path86189-5"
           inkscape:path-effect="#path-effect86191-1"
           inkscape:original-d="m 1944.3113,-300.8751 c -1.991,-3.09597 -3.9817,-6.19178 -5.9722,-9.28744 -5.0019,-3.06457 -10.0033,-6.12883 -15.0045,-9.1929 -8.7666,-2.82322 -17.5325,-5.64614 -26.2983,-8.46897 -5.5722,-4.93436 -11.1438,-9.8683 -16.7153,-14.80217 -5.2256,-11.54336 -10.4506,-23.08609 -15.6754,-34.62876 -1.9707,-13.2307 -3.9409,-26.46056 -5.9109,-39.69046 -0.099,-0.12863 -0.1984,-0.25712 -0.2972,-0.38535 -2.5063,0.46947 -7.518,1.40885 -7.518,1.40885 l 2.8343,13.66788 2.8348,13.66811 c 0,0 5.5431,17.05269 8.3152,25.57946 3.2937,6.52408 6.5875,13.04813 9.8818,19.57242 6.6533,6.36721 13.3067,12.73441 19.9605,19.10195 8.0342,2.56332 16.0683,5.12675 24.1029,7.69051 5.1979,2.12016 10.3958,4.2404 15.5941,6.36088 l 5.3455,3.81057 c 1.5073,1.86502 3.0148,3.73009 4.5227,5.59542 z"
           sodipodi:nodetypes="cccccccccccccccccc" />
        <path
           style="fill:#916f6f;fill-opacity:1;stroke:#000000;stroke-width:2;stroke-linecap:butt;stroke-linejoin:miter;stroke-dasharray:none;stroke-opacity:1"
           d="m 1854.2649,-444.84553 -6.7624,1.2156 3.417,27.70773 7.3542,-0.88496 z"
           id="path86233" />
        <path
           style="fill:#008080;fill-opacity:1;stroke:#000000;stroke-width:2;stroke-linecap:butt;stroke-linejoin:miter;stroke-dasharray:none;stroke-opacity:1"
           d="m 1911.6508,-377.57674 11.2944,7.12728 60.1305,-7.21355 -15.1354,-7.84601 z"
           id="path81001-6-2-9" />
        <path
           style="fill:#008080;fill-opacity:1;stroke:#000000;stroke-width:2;stroke-linecap:butt;stroke-linejoin:miter;stroke-dasharray:none;stroke-opacity:1"
           d="m 1910.7348,-381.3701 7.222,-9.73661 59.5419,-9.65065 -10.4745,11.45499 z"
           id="path81001-7-9-8-9" />
        <path
           style="fill:#796321;fill-opacity:1;stroke:#000000;stroke-width:1;stroke-linecap:butt;stroke-linejoin:miter;stroke-dasharray:none;stroke-opacity:1"
           d="m 1972.4785,-390.03629 1.1473,3.5687 -143.6578,21.6938 -0.9635,-2.9971 z"
           id="path81035-8-2-1" />
        <path
           sodipodi:type="star"
           style="fill:#aca793;fill-opacity:1;stroke:#000000;stroke-width:1;stroke-linecap:square;stroke-linejoin:miter;stroke-dasharray:none;stroke-opacity:1;paint-order:stroke fill markers"
           id="path86470"
           inkscape:flatsided="true"
           sodipodi:sides="3"
           sodipodi:cx="1884.1326"
           sodipodi:cy="-60.233288"
           sodipodi:r1="4.8304124"
           sodipodi:r2="2.4152062"
           sodipodi:arg1="0.52589771"
           sodipodi:arg2="1.5730953"
           inkscape:rounded="1"
           inkscape:randomized="0"
           inkscape:transform-center-x="-0.0077327934"
           inkscape:transform-center-y="1.5085831"
           transform="rotate(80.626678,2034.9414,-247.34855)"
           d="m 1888.3103,-57.808471 c -4.1999,7.235982 -4.1999,7.235982 -8.3665,-0.01923 -4.1666,-7.255216 -4.1666,-7.255216 4.1999,-7.235982 8.3665,0.01923 8.3665,0.01923 4.1666,7.255216 z" />
      </g>
    </g>
  </g>
</svg>
